# MagicaVoxel @ ephtracy

# material
mtllib ABC.mtl
usemtl palette

# normals
vn -1 0 0
vn 1 0 0
vn 0 0 1
vn 0 0 -1
vn 0 -1 0
vn 0 1 0

# texcoords
vt 0.798828 0.5
vt 0.841797 0.5
vt 0.873047 0.5
vt 0.896484 0.5
vt 0.958984 0.5
vt 0.986328 0.5
vt 0.990234 0.5

# verts
v -3 0 9
v -3 0 -24
v -3 8 8
v -3 8 -23
v -3 10 5
v -3 10 -4
v -3 10 -11
v -3 10 -20
v -3 13 5
v -3 13 -4
v -3 13 -11
v -3 13 -20
v -3 14 8
v -3 14 -23
v -3 15 9
v -3 15 -24
v -2 10 5
v -2 10 -4
v -2 10 -11
v -2 10 -20
v -2 13 5
v -2 13 -4
v -2 13 -11
v -2 13 -20
v 1 9 -24
v 1 9 -25
v 1 10 -24
v 1 10 -25
v 1 13 -24
v 1 13 -25
v 1 14 -24
v 1 14 -25
v 3 15 -12
v 3 15 -17
v 3 17 -12
v 3 17 -17
v 4 10 -24
v 4 10 -25
v 4 13 -24
v 4 13 -25
v 9 9 -24
v 9 9 -25
v 9 11 -24
v 9 11 -25
v 9 12 -24
v 9 12 -25
v 9 14 -24
v 9 14 -25
v 10 11 -24
v 10 11 -25
v 10 12 -24
v 10 12 -25
v 12 10 -24
v 12 10 -25
v 12 11 -24
v 12 11 -25
v 12 12 -24
v 12 12 -25
v 12 13 -24
v 12 13 -25
v 16 10 9
v 16 10 8
v 16 14 9
v 16 14 8
v 16 15 2
v 16 15 -2
v 16 17 2
v 16 17 -2
v 17 0 -23
v 17 0 -24
v 17 7 -23
v 17 7 -24
v 17 9 -24
v 17 9 -25
v 17 11 -24
v 17 11 -25
v 18 11 -24
v 18 11 -25
v 18 13 -24
v 18 13 -25
v 19 13 -24
v 19 13 -25
v 19 14 -24
v 19 14 -25
v 20 12 -24
v 20 12 -25
v 20 13 -24
v 20 13 -25
v 21 9 -24
v 21 9 -25
v 21 11 -24
v 21 11 -25
v 4 9 -24
v 4 9 -25
v 4 10 -24
v 4 10 -25
v 4 13 -24
v 4 13 -25
v 4 14 -24
v 4 14 -25
v 5 10 -24
v 5 10 -25
v 5 13 -24
v 5 13 -25
v 6 0 -23
v 6 0 -24
v 6 7 -23
v 6 7 -24
v 6 15 -12
v 6 15 -17
v 6 17 -12
v 6 17 -17
v 7 10 9
v 7 10 8
v 7 14 9
v 7 14 8
v 10 10 -24
v 10 10 -25
v 10 11 -24
v 10 11 -25
v 10 12 -24
v 10 12 -25
v 10 13 -24
v 10 13 -25
v 13 9 -24
v 13 9 -25
v 13 14 -24
v 13 14 -25
v 18 9 -24
v 18 9 -25
v 18 11 -24
v 18 11 -25
v 19 12 -24
v 19 12 -25
v 19 13 -24
v 19 13 -25
v 20 13 -24
v 20 13 -25
v 20 14 -24
v 20 14 -25
v 21 11 -24
v 21 11 -25
v 21 13 -24
v 21 13 -25
v 21 15 2
v 21 15 -2
v 21 17 2
v 21 17 -2
v 22 9 -24
v 22 9 -25
v 22 11 -24
v 22 11 -25
v 25 10 5
v 25 10 -3
v 25 10 -11
v 25 10 -20
v 25 13 5
v 25 13 -3
v 25 13 -11
v 25 13 -20
v 26 0 9
v 26 0 -24
v 26 8 8
v 26 8 -23
v 26 10 5
v 26 10 -3
v 26 10 -11
v 26 10 -20
v 26 13 5
v 26 13 -3
v 26 13 -11
v 26 13 -20
v 26 14 8
v 26 14 -23
v 26 15 9
v 26 15 -24
v -3 0 9
v -3 15 9
v -2 8 9
v -2 14 9
v 7 10 9
v 7 14 9
v 16 10 9
v 16 14 9
v 25 8 9
v 25 14 9
v 26 0 9
v 26 15 9
v 7 10 8
v 7 14 8
v 16 10 8
v 16 14 8
v 16 15 2
v 16 17 2
v 21 15 2
v 21 17 2
v 25 10 -3
v 25 13 -3
v 26 10 -3
v 26 13 -3
v -3 10 -4
v -3 13 -4
v -2 10 -4
v -2 13 -4
v 3 15 -12
v 3 17 -12
v 6 15 -12
v 6 17 -12
v -3 10 -20
v -3 13 -20
v -2 10 -20
v -2 13 -20
v 25 10 -20
v 25 13 -20
v 26 10 -20
v 26 13 -20
v -3 10 5
v -3 13 5
v -2 10 5
v -2 13 5
v 25 10 5
v 25 13 5
v 26 10 5
v 26 13 5
v 16 15 -2
v 16 17 -2
v 21 15 -2
v 21 17 -2
v -3 10 -11
v -3 13 -11
v -2 10 -11
v -2 13 -11
v 25 10 -11
v 25 13 -11
v 26 10 -11
v 26 13 -11
v 3 15 -17
v 3 17 -17
v 6 15 -17
v 6 17 -17
v 6 0 -23
v 6 7 -23
v 11 0 -23
v 11 7 -23
v 12 0 -23
v 12 7 -23
v 17 0 -23
v 17 7 -23
v -3 0 -24
v -3 15 -24
v -2 8 -24
v -2 14 -24
v 1 9 -24
v 1 10 -24
v 1 13 -24
v 1 14 -24
v 4 9 -24
v 4 10 -24
v 4 13 -24
v 4 14 -24
v 5 10 -24
v 5 13 -24
v 6 0 -24
v 6 7 -24
v 9 9 -24
v 9 11 -24
v 9 12 -24
v 9 14 -24
v 10 10 -24
v 10 11 -24
v 10 12 -24
v 10 13 -24
v 12 10 -24
v 12 11 -24
v 12 12 -24
v 12 13 -24
v 13 9 -24
v 13 14 -24
v 17 0 -24
v 17 7 -24
v 17 9 -24
v 17 11 -24
v 18 9 -24
v 18 11 -24
v 18 13 -24
v 19 12 -24
v 19 13 -24
v 19 14 -24
v 20 12 -24
v 20 13 -24
v 20 14 -24
v 21 9 -24
v 21 11 -24
v 21 13 -24
v 22 9 -24
v 22 11 -24
v 25 8 -24
v 25 14 -24
v 26 0 -24
v 26 15 -24
v 1 9 -25
v 1 10 -25
v 1 13 -25
v 1 14 -25
v 4 9 -25
v 4 10 -25
v 4 13 -25
v 4 14 -25
v 5 10 -25
v 5 13 -25
v 9 9 -25
v 9 11 -25
v 9 12 -25
v 9 14 -25
v 10 10 -25
v 10 11 -25
v 10 12 -25
v 10 13 -25
v 12 10 -25
v 12 11 -25
v 12 12 -25
v 12 13 -25
v 13 9 -25
v 13 14 -25
v 17 9 -25
v 17 11 -25
v 18 9 -25
v 18 11 -25
v 18 13 -25
v 19 12 -25
v 19 13 -25
v 19 14 -25
v 20 12 -25
v 20 13 -25
v 20 14 -25
v 21 9 -25
v 21 11 -25
v 21 13 -25
v 22 9 -25
v 22 11 -25
v -3 0 9
v 26 0 9
v 6 0 -22
v 11 0 -22
v 12 0 -22
v 17 0 -22
v 6 0 -23
v 11 0 -23
v 12 0 -23
v 17 0 -23
v -3 0 -24
v 6 0 -24
v 17 0 -24
v 26 0 -24
v 6 7 -23
v 11 7 -23
v 12 7 -23
v 17 7 -23
v 6 7 -24
v 17 7 -24
v 1 9 -24
v 4 9 -24
v 9 9 -24
v 13 9 -24
v 17 9 -24
v 18 9 -24
v 21 9 -24
v 22 9 -24
v 1 9 -25
v 4 9 -25
v 9 9 -25
v 13 9 -25
v 17 9 -25
v 18 9 -25
v 21 9 -25
v 22 9 -25
v 4 10 -24
v 5 10 -24
v 4 10 -25
v 5 10 -25
v 10 11 -24
v 12 11 -24
v 18 11 -24
v 21 11 -24
v 10 11 -25
v 12 11 -25
v 18 11 -25
v 21 11 -25
v 9 12 -24
v 10 12 -24
v 9 12 -25
v 10 12 -25
v -3 13 5
v -2 13 5
v 25 13 5
v 26 13 5
v 25 13 -3
v 26 13 -3
v -3 13 -4
v -2 13 -4
v -3 13 -11
v -2 13 -11
v 25 13 -11
v 26 13 -11
v -3 13 -20
v -2 13 -20
v 25 13 -20
v 26 13 -20
v 1 13 -24
v 4 13 -24
v 10 13 -24
v 12 13 -24
v 19 13 -24
v 20 13 -24
v 1 13 -25
v 4 13 -25
v 10 13 -25
v 12 13 -25
v 19 13 -25
v 20 13 -25
v 7 14 9
v 16 14 9
v 7 14 8
v 16 14 8
v 7 10 9
v 16 10 9
v 7 10 8
v 16 10 8
v -3 10 5
v -2 10 5
v 25 10 5
v 26 10 5
v 25 10 -3
v 26 10 -3
v -3 10 -4
v -2 10 -4
v -3 10 -11
v -2 10 -11
v 25 10 -11
v 26 10 -11
v -3 10 -20
v -2 10 -20
v 25 10 -20
v 26 10 -20
v 1 10 -24
v 4 10 -24
v 10 10 -24
v 12 10 -24
v 1 10 -25
v 4 10 -25
v 10 10 -25
v 12 10 -25
v 9 11 -24
v 10 11 -24
v 17 11 -24
v 18 11 -24
v 21 11 -24
v 22 11 -24
v 9 11 -25
v 10 11 -25
v 17 11 -25
v 18 11 -25
v 21 11 -25
v 22 11 -25
v 10 12 -24
v 12 12 -24
v 19 12 -24
v 20 12 -24
v 10 12 -25
v 12 12 -25
v 19 12 -25
v 20 12 -25
v 4 13 -24
v 5 13 -24
v 18 13 -24
v 19 13 -24
v 20 13 -24
v 21 13 -24
v 4 13 -25
v 5 13 -25
v 18 13 -25
v 19 13 -25
v 20 13 -25
v 21 13 -25
v 1 14 -24
v 4 14 -24
v 9 14 -24
v 13 14 -24
v 19 14 -24
v 20 14 -24
v 1 14 -25
v 4 14 -25
v 9 14 -25
v 13 14 -25
v 19 14 -25
v 20 14 -25
v -3 15 9
v 26 15 9
v -2 15 8
v 25 15 8
v 16 15 2
v 21 15 2
v 16 15 -2
v 21 15 -2
v 3 15 -12
v 6 15 -12
v 3 15 -17
v 6 15 -17
v -2 15 -23
v 25 15 -23
v -3 15 -24
v 26 15 -24
v 16 17 2
v 21 17 2
v 16 17 -2
v 21 17 -2
v 3 17 -12
v 6 17 -12
v 3 17 -17
v 6 17 -17

# faces
f 3/3/1 2/3/1 1/3/1
f 4/3/1 2/3/1 3/3/1
f 5/7/1 4/7/1 3/7/1
f 6/7/1 4/7/1 5/7/1
f 7/7/1 4/7/1 6/7/1
f 8/7/1 4/7/1 7/7/1
f 9/7/1 5/7/1 3/7/1
f 10/7/1 7/7/1 6/7/1
f 11/7/1 7/7/1 10/7/1
f 12/7/1 4/7/1 8/7/1
f 13/3/1 3/3/1 1/3/1
f 13/7/1 12/7/1 11/7/1
f 13/7/1 11/7/1 10/7/1
f 13/7/1 9/7/1 3/7/1
f 13/7/1 10/7/1 9/7/1
f 14/7/1 4/7/1 12/7/1
f 14/7/1 12/7/1 13/7/1
f 14/3/1 2/3/1 4/3/1
f 15/3/1 13/3/1 1/3/1
f 15/3/1 14/3/1 13/3/1
f 16/3/1 2/3/1 14/3/1
f 16/3/1 14/3/1 15/3/1
f 21/1/1 18/1/1 17/1/1
f 22/1/1 18/1/1 21/1/1
f 23/1/1 20/1/1 19/1/1
f 24/1/1 20/1/1 23/1/1
f 27/4/1 26/4/1 25/4/1
f 28/4/1 26/4/1 27/4/1
f 31/4/1 30/4/1 29/4/1
f 32/4/1 30/4/1 31/4/1
f 35/6/1 34/6/1 33/6/1
f 36/6/1 34/6/1 35/6/1
f 39/4/1 38/4/1 37/4/1
f 40/4/1 38/4/1 39/4/1
f 43/5/1 42/5/1 41/5/1
f 44/5/1 42/5/1 43/5/1
f 47/5/1 46/5/1 45/5/1
f 48/5/1 46/5/1 47/5/1
f 51/5/1 50/5/1 49/5/1
f 52/5/1 50/5/1 51/5/1
f 55/5/1 54/5/1 53/5/1
f 56/5/1 54/5/1 55/5/1
f 59/5/1 58/5/1 57/5/1
f 60/5/1 58/5/1 59/5/1
f 63/7/1 62/7/1 61/7/1
f 64/7/1 62/7/1 63/7/1
f 67/6/1 66/6/1 65/6/1
f 68/6/1 66/6/1 67/6/1
f 71/3/1 70/3/1 69/3/1
f 72/3/1 70/3/1 71/3/1
f 75/2/1 74/2/1 73/2/1
f 76/2/1 74/2/1 75/2/1
f 79/2/1 78/2/1 77/2/1
f 80/2/1 78/2/1 79/2/1
f 83/2/1 82/2/1 81/2/1
f 84/2/1 82/2/1 83/2/1
f 87/2/1 86/2/1 85/2/1
f 88/2/1 86/2/1 87/2/1
f 91/2/1 90/2/1 89/2/1
f 92/2/1 90/2/1 91/2/1
f 93/4/2 94/4/2 95/4/2
f 95/4/2 94/4/2 96/4/2
f 97/4/2 98/4/2 99/4/2
f 99/4/2 98/4/2 100/4/2
f 101/4/2 102/4/2 103/4/2
f 103/4/2 102/4/2 104/4/2
f 105/3/2 106/3/2 107/3/2
f 107/3/2 106/3/2 108/3/2
f 109/6/2 110/6/2 111/6/2
f 111/6/2 110/6/2 112/6/2
f 113/7/2 114/7/2 115/7/2
f 115/7/2 114/7/2 116/7/2
f 117/5/2 118/5/2 119/5/2
f 119/5/2 118/5/2 120/5/2
f 121/5/2 122/5/2 123/5/2
f 123/5/2 122/5/2 124/5/2
f 125/5/2 126/5/2 127/5/2
f 127/5/2 126/5/2 128/5/2
f 129/2/2 130/2/2 131/2/2
f 131/2/2 130/2/2 132/2/2
f 133/2/2 134/2/2 135/2/2
f 135/2/2 134/2/2 136/2/2
f 137/2/2 138/2/2 139/2/2
f 139/2/2 138/2/2 140/2/2
f 141/2/2 142/2/2 143/2/2
f 143/2/2 142/2/2 144/2/2
f 145/6/2 146/6/2 147/6/2
f 147/6/2 146/6/2 148/6/2
f 149/2/2 150/2/2 151/2/2
f 151/2/2 150/2/2 152/2/2
f 153/1/2 154/1/2 157/1/2
f 157/1/2 154/1/2 158/1/2
f 155/1/2 156/1/2 159/1/2
f 159/1/2 156/1/2 160/1/2
f 161/3/2 162/3/2 163/3/2
f 163/3/2 162/3/2 164/3/2
f 163/7/2 164/7/2 165/7/2
f 165/7/2 164/7/2 166/7/2
f 166/7/2 164/7/2 167/7/2
f 167/7/2 164/7/2 168/7/2
f 163/7/2 165/7/2 169/7/2
f 166/7/2 167/7/2 170/7/2
f 170/7/2 167/7/2 171/7/2
f 168/7/2 164/7/2 172/7/2
f 161/3/2 163/3/2 173/3/2
f 171/7/2 172/7/2 173/7/2
f 170/7/2 171/7/2 173/7/2
f 163/7/2 169/7/2 173/7/2
f 169/7/2 170/7/2 173/7/2
f 172/7/2 164/7/2 174/7/2
f 173/7/2 172/7/2 174/7/2
f 164/3/2 162/3/2 174/3/2
f 161/3/2 173/3/2 175/3/2
f 173/3/2 174/3/2 175/3/2
f 174/3/2 162/3/2 176/3/2
f 175/3/2 174/3/2 176/3/2
f 179/3/3 178/3/3 177/3/3
f 180/3/3 178/3/3 179/3/3
f 181/7/3 180/7/3 179/7/3
f 182/3/3 178/3/3 180/3/3
f 182/7/3 180/7/3 181/7/3
f 183/7/3 181/7/3 179/7/3
f 184/3/3 178/3/3 182/3/3
f 185/3/3 179/3/3 177/3/3
f 185/7/3 184/7/3 183/7/3
f 185/7/3 183/7/3 179/7/3
f 186/3/3 178/3/3 184/3/3
f 186/7/3 184/7/3 185/7/3
f 187/3/3 185/3/3 177/3/3
f 187/3/3 186/3/3 185/3/3
f 188/3/3 178/3/3 186/3/3
f 188/3/3 186/3/3 187/3/3
f 191/1/3 190/1/3 189/1/3
f 192/1/3 190/1/3 191/1/3
f 195/6/3 194/6/3 193/6/3
f 196/6/3 194/6/3 195/6/3
f 199/7/3 198/7/3 197/7/3
f 200/7/3 198/7/3 199/7/3
f 203/7/3 202/7/3 201/7/3
f 204/7/3 202/7/3 203/7/3
f 207/6/3 206/6/3 205/6/3
f 208/6/3 206/6/3 207/6/3
f 211/7/3 210/7/3 209/7/3
f 212/7/3 210/7/3 211/7/3
f 215/7/3 214/7/3 213/7/3
f 216/7/3 214/7/3 215/7/3
f 217/7/4 218/7/4 219/7/4
f 219/7/4 218/7/4 220/7/4
f 221/7/4 222/7/4 223/7/4
f 223/7/4 222/7/4 224/7/4
f 225/6/4 226/6/4 227/6/4
f 227/6/4 226/6/4 228/6/4
f 229/7/4 230/7/4 231/7/4
f 231/7/4 230/7/4 232/7/4
f 233/7/4 234/7/4 235/7/4
f 235/7/4 234/7/4 236/7/4
f 237/6/4 238/6/4 239/6/4
f 239/6/4 238/6/4 240/6/4
f 241/1/4 242/1/4 243/1/4
f 243/1/4 242/1/4 244/1/4
f 243/6/4 244/6/4 245/6/4
f 245/6/4 244/6/4 246/6/4
f 245/1/4 246/1/4 247/1/4
f 247/1/4 246/1/4 248/1/4
f 249/3/4 250/3/4 251/3/4
f 251/3/4 250/3/4 252/3/4
f 251/7/4 252/7/4 253/7/4
f 253/7/4 252/7/4 254/7/4
f 254/7/4 252/7/4 255/7/4
f 252/3/4 250/3/4 256/3/4
f 255/7/4 252/7/4 256/7/4
f 251/7/4 253/7/4 257/7/4
f 254/7/4 255/7/4 258/7/4
f 258/7/4 255/7/4 259/7/4
f 256/3/4 250/3/4 260/3/4
f 257/7/4 258/7/4 261/7/4
f 259/7/4 260/7/4 262/7/4
f 249/3/4 251/3/4 263/3/4
f 263/3/4 251/3/4 264/3/4
f 261/7/4 262/7/4 265/7/4
f 251/7/4 257/7/4 265/7/4
f 257/7/4 261/7/4 265/7/4
f 265/7/4 262/7/4 266/7/4
f 266/7/4 262/7/4 267/7/4
f 262/7/4 260/7/4 268/7/4
f 267/7/4 262/7/4 268/7/4
f 260/3/4 250/3/4 268/3/4
f 266/7/4 267/7/4 270/7/4
f 270/7/4 267/7/4 271/7/4
f 269/7/4 270/7/4 273/7/4
f 273/7/4 270/7/4 274/7/4
f 271/7/4 272/7/4 275/7/4
f 275/7/4 272/7/4 276/7/4
f 251/7/4 265/7/4 277/7/4
f 268/3/4 250/3/4 278/3/4
f 264/3/4 251/3/4 280/3/4
f 277/7/4 278/7/4 281/7/4
f 251/7/4 277/7/4 281/7/4
f 281/7/4 278/7/4 282/7/4
f 251/7/4 281/7/4 283/7/4
f 282/7/4 278/7/4 284/7/4
f 284/7/4 278/7/4 285/7/4
f 285/7/4 278/7/4 287/7/4
f 278/3/4 250/3/4 288/3/4
f 287/7/4 278/7/4 288/7/4
f 286/7/4 287/7/4 289/7/4
f 289/7/4 287/7/4 290/7/4
f 288/3/4 250/3/4 291/3/4
f 251/7/4 283/7/4 292/7/4
f 283/7/4 284/7/4 292/7/4
f 292/7/4 284/7/4 293/7/4
f 290/7/4 291/7/4 294/7/4
f 251/7/4 292/7/4 295/7/4
f 293/7/4 294/7/4 296/7/4
f 279/3/4 280/3/4 297/3/4
f 295/7/4 296/7/4 297/7/4
f 280/3/4 251/3/4 297/3/4
f 251/7/4 295/7/4 297/7/4
f 296/7/4 294/7/4 298/7/4
f 297/7/4 296/7/4 298/7/4
f 291/3/4 250/3/4 298/3/4
f 294/7/4 291/7/4 298/7/4
f 279/3/4 297/3/4 299/3/4
f 297/3/4 298/3/4 299/3/4
f 298/3/4 250/3/4 300/3/4
f 299/3/4 298/3/4 300/3/4
f 301/4/4 302/4/4 305/4/4
f 305/4/4 302/4/4 306/4/4
f 303/4/4 304/4/4 307/4/4
f 307/4/4 304/4/4 308/4/4
f 306/4/4 307/4/4 309/4/4
f 309/4/4 307/4/4 310/4/4
f 311/5/4 312/5/4 315/5/4
f 315/5/4 312/5/4 316/5/4
f 313/5/4 314/5/4 317/5/4
f 317/5/4 314/5/4 318/5/4
f 311/5/4 315/5/4 319/5/4
f 316/5/4 317/5/4 320/5/4
f 320/5/4 317/5/4 321/5/4
f 318/5/4 314/5/4 322/5/4
f 320/5/4 321/5/4 323/5/4
f 321/5/4 322/5/4 323/5/4
f 311/5/4 319/5/4 323/5/4
f 319/5/4 320/5/4 323/5/4
f 322/5/4 314/5/4 324/5/4
f 323/5/4 322/5/4 324/5/4
f 325/2/4 326/2/4 327/2/4
f 327/2/4 326/2/4 328/2/4
f 328/2/4 329/2/4 330/2/4
f 330/2/4 329/2/4 331/2/4
f 328/2/4 330/2/4 333/2/4
f 331/2/4 332/2/4 334/2/4
f 334/2/4 332/2/4 335/2/4
f 328/2/4 333/2/4 337/2/4
f 333/2/4 334/2/4 337/2/4
f 337/2/4 334/2/4 338/2/4
f 336/2/4 337/2/4 339/2/4
f 339/2/4 337/2/4 340/2/4
f 343/3/5 342/3/5 341/3/5
f 344/3/5 342/3/5 343/3/5
f 345/3/5 342/3/5 344/3/5
f 346/3/5 342/3/5 345/3/5
f 347/3/5 343/3/5 341/3/5
f 347/1/5 344/1/5 343/1/5
f 348/6/5 345/6/5 344/6/5
f 348/1/5 344/1/5 347/1/5
f 349/1/5 346/1/5 345/1/5
f 349/6/5 345/6/5 348/6/5
f 350/3/5 342/3/5 346/3/5
f 350/1/5 346/1/5 349/1/5
f 351/3/5 347/3/5 341/3/5
f 352/3/5 347/3/5 351/3/5
f 353/3/5 342/3/5 350/3/5
f 354/3/5 342/3/5 353/3/5
f 359/3/5 356/3/5 355/3/5
f 359/3/5 358/3/5 357/3/5
f 359/3/5 357/3/5 356/3/5
f 360/3/5 358/3/5 359/3/5
f 369/4/5 362/4/5 361/4/5
f 370/4/5 362/4/5 369/4/5
f 371/5/5 364/5/5 363/5/5
f 372/5/5 364/5/5 371/5/5
f 373/2/5 366/2/5 365/2/5
f 374/2/5 366/2/5 373/2/5
f 375/2/5 368/2/5 367/2/5
f 376/2/5 368/2/5 375/2/5
f 379/4/5 378/4/5 377/4/5
f 380/4/5 378/4/5 379/4/5
f 385/5/5 382/5/5 381/5/5
f 386/5/5 382/5/5 385/5/5
f 387/2/5 384/2/5 383/2/5
f 388/2/5 384/2/5 387/2/5
f 391/5/5 390/5/5 389/5/5
f 392/5/5 390/5/5 391/5/5
f 397/7/5 396/7/5 395/7/5
f 398/7/5 396/7/5 397/7/5
f 399/7/5 394/7/5 393/7/5
f 400/7/5 394/7/5 399/7/5
f 405/7/5 402/7/5 401/7/5
f 406/7/5 402/7/5 405/7/5
f 407/7/5 404/7/5 403/7/5
f 408/7/5 404/7/5 407/7/5
f 415/4/5 410/4/5 409/4/5
f 416/4/5 410/4/5 415/4/5
f 417/5/5 412/5/5 411/5/5
f 418/5/5 412/5/5 417/5/5
f 419/2/5 414/2/5 413/2/5
f 420/2/5 414/2/5 419/2/5
f 423/3/5 422/3/5 421/3/5
f 424/3/5 422/3/5 423/3/5
f 425/7/6 426/7/6 427/7/6
f 427/7/6 426/7/6 428/7/6
f 431/7/6 432/7/6 433/7/6
f 433/7/6 432/7/6 434/7/6
f 429/7/6 430/7/6 435/7/6
f 435/7/6 430/7/6 436/7/6
f 437/7/6 438/7/6 441/7/6
f 441/7/6 438/7/6 442/7/6
f 439/7/6 440/7/6 443/7/6
f 443/7/6 440/7/6 444/7/6
f 445/4/6 446/4/6 449/4/6
f 449/4/6 446/4/6 450/4/6
f 447/5/6 448/5/6 451/5/6
f 451/5/6 448/5/6 452/5/6
f 453/5/6 454/5/6 459/5/6
f 459/5/6 454/5/6 460/5/6
f 455/2/6 456/2/6 461/2/6
f 461/2/6 456/2/6 462/2/6
f 457/2/6 458/2/6 463/2/6
f 463/2/6 458/2/6 464/2/6
f 465/5/6 466/5/6 469/5/6
f 469/5/6 466/5/6 470/5/6
f 467/2/6 468/2/6 471/2/6
f 471/2/6 468/2/6 472/2/6
f 473/4/6 474/4/6 479/4/6
f 479/4/6 474/4/6 480/4/6
f 475/2/6 476/2/6 481/2/6
f 481/2/6 476/2/6 482/2/6
f 477/2/6 478/2/6 483/2/6
f 483/2/6 478/2/6 484/2/6
f 485/4/6 486/4/6 491/4/6
f 491/4/6 486/4/6 492/4/6
f 487/5/6 488/5/6 493/5/6
f 493/5/6 488/5/6 494/5/6
f 489/2/6 490/2/6 495/2/6
f 495/2/6 490/2/6 496/2/6
f 497/3/6 498/3/6 499/3/6
f 499/3/6 498/3/6 500/3/6
f 499/7/6 500/7/6 501/7/6
f 501/7/6 500/7/6 502/7/6
f 499/7/6 501/7/6 503/7/6
f 502/7/6 500/7/6 504/7/6
f 499/7/6 503/7/6 505/7/6
f 503/7/6 504/7/6 505/7/6
f 505/7/6 504/7/6 506/7/6
f 499/7/6 505/7/6 507/7/6
f 506/7/6 504/7/6 508/7/6
f 497/3/6 499/3/6 509/3/6
f 507/7/6 508/7/6 509/7/6
f 499/7/6 507/7/6 509/7/6
f 508/7/6 504/7/6 510/7/6
f 509/7/6 508/7/6 510/7/6
f 500/3/6 498/3/6 510/3/6
f 504/7/6 500/7/6 510/7/6
f 497/3/6 509/3/6 511/3/6
f 509/3/6 510/3/6 511/3/6
f 510/3/6 498/3/6 512/3/6
f 511/3/6 510/3/6 512/3/6
f 513/6/6 514/6/6 515/6/6
f 515/6/6 514/6/6 516/6/6
f 517/6/6 518/6/6 519/6/6
f 519/6/6 518/6/6 520/6/6
