# MagicaVoxel @ ephtracy

# material
mtllib bûnözõ.2.mtl
usemtl palette

# normals
vn -1 0 0
vn 1 0 0
vn 0 0 1
vn 0 0 -1
vn 0 -1 0
vn 0 1 0

# texcoords
vt 0.0332031 0.5
vt 0.373047 0.5
vt 0.775391 0.5
vt 0.994141 0.5

# verts
v -5 6 4.5
v -5 6 -0.5
v -5 7 4.5
v -5 7 -0.5
v -3 1 2.5
v -3 1 -2.5
v -3 6 0.5
v -3 6 -0.5
v -3 7 0.5
v -3 7 -0.5
v -3 8 2.5
v -3 8 -2.5
v -3 9 -0.5
v -3 9 -2.5
v -3 10 1.5
v -3 10 -0.5
v -3 11 2.5
v -3 11 1.5
v -3 11 -2.5
v -3 11 -4.5
v -3 12 -2.5
v -3 12 -4.5
v -3 13 2.5
v -3 13 -2.5
v -2 0 0.5
v -2 0 -0.5
v -2 1 0.5
v -2 1 -0.5
v 1 0 0.5
v 1 0 -0.5
v 1 1 0.5
v 1 1 -0.5
v 4 6 4.5
v 4 6 0.5
v 4 7 4.5
v 4 7 0.5
v -4 6 4.5
v -4 6 0.5
v -4 7 4.5
v -4 7 0.5
v -1 0 0.5
v -1 0 -0.5
v -1 1 0.5
v -1 1 -0.5
v 2 0 0.5
v 2 0 -0.5
v 2 1 0.5
v 2 1 -0.5
v 3 1 2.5
v 3 1 -2.5
v 3 6 0.5
v 3 6 -0.5
v 3 7 0.5
v 3 7 -0.5
v 3 8 2.5
v 3 8 -2.5
v 3 9 -0.5
v 3 9 -2.5
v 3 10 1.5
v 3 10 -0.5
v 3 11 2.5
v 3 11 1.5
v 3 11 -2.5
v 3 11 -4.5
v 3 12 -2.5
v 3 12 -4.5
v 3 13 2.5
v 3 13 -2.5
v 5 6 4.5
v 5 6 -0.5
v 5 7 4.5
v 5 7 -0.5
v -5 6 4.5
v -5 7 4.5
v -4 6 4.5
v -4 7 4.5
v 4 6 4.5
v 4 7 4.5
v 5 6 4.5
v 5 7 4.5
v -3 1 2.5
v -3 8 2.5
v -3 11 2.5
v -3 13 2.5
v -2 9 2.5
v -2 10 2.5
v -1 9 2.5
v -1 10 2.5
v 1 9 2.5
v 1 10 2.5
v 2 9 2.5
v 2 10 2.5
v 3 1 2.5
v 3 8 2.5
v 3 11 2.5
v 3 13 2.5
v -4 6 0.5
v -4 7 0.5
v -3 6 0.5
v -3 7 0.5
v -2 0 0.5
v -2 1 0.5
v -1 0 0.5
v -1 1 0.5
v 1 0 0.5
v 1 1 0.5
v 2 0 0.5
v 2 1 0.5
v 3 6 0.5
v 3 7 0.5
v 4 6 0.5
v 4 7 0.5
v -5 6 -0.5
v -5 7 -0.5
v -3 6 -0.5
v -3 7 -0.5
v -2 0 -0.5
v -2 1 -0.5
v -1 0 -0.5
v -1 1 -0.5
v 1 0 -0.5
v 1 1 -0.5
v 2 0 -0.5
v 2 1 -0.5
v 3 6 -0.5
v 3 7 -0.5
v 5 6 -0.5
v 5 7 -0.5
v -3 1 -2.5
v -3 8 -2.5
v -3 9 -2.5
v -3 11 -2.5
v -3 12 -2.5
v -3 13 -2.5
v 3 1 -2.5
v 3 8 -2.5
v 3 9 -2.5
v 3 11 -2.5
v 3 12 -2.5
v 3 13 -2.5
v -3 11 -4.5
v -3 12 -4.5
v 3 11 -4.5
v 3 12 -4.5
v -2 0 0.5
v -1 0 0.5
v 1 0 0.5
v 2 0 0.5
v -2 0 -0.5
v -1 0 -0.5
v 1 0 -0.5
v 2 0 -0.5
v -3 1 2.5
v 3 1 2.5
v -2 1 0.5
v -1 1 0.5
v 1 1 0.5
v 2 1 0.5
v -2 1 -0.5
v -1 1 -0.5
v 1 1 -0.5
v 2 1 -0.5
v -3 1 -2.5
v 3 1 -2.5
v -5 6 4.5
v -4 6 4.5
v 4 6 4.5
v 5 6 4.5
v -4 6 0.5
v -3 6 0.5
v 3 6 0.5
v 4 6 0.5
v -5 6 -0.5
v -3 6 -0.5
v 3 6 -0.5
v 5 6 -0.5
v -3 11 -2.5
v 3 11 -2.5
v -3 11 -4.5
v 3 11 -4.5
v -5 7 4.5
v -4 7 4.5
v 4 7 4.5
v 5 7 4.5
v -4 7 0.5
v -3 7 0.5
v 3 7 0.5
v 4 7 0.5
v -5 7 -0.5
v -3 7 -0.5
v 3 7 -0.5
v 5 7 -0.5
v -3 12 -2.5
v 3 12 -2.5
v -3 12 -4.5
v 3 12 -4.5
v -3 13 2.5
v 3 13 2.5
v -3 13 -2.5
v 3 13 -2.5

# faces
f 3/4/1 2/4/1 1/4/1
f 4/4/1 2/4/1 3/4/1
f 7/4/1 6/4/1 5/4/1
f 8/4/1 6/4/1 7/4/1
f 9/4/1 7/4/1 5/4/1
f 10/4/1 6/4/1 8/4/1
f 11/4/1 9/4/1 5/4/1
f 11/4/1 10/4/1 9/4/1
f 12/4/1 6/4/1 10/4/1
f 12/4/1 10/4/1 11/4/1
f 13/1/1 12/1/1 11/1/1
f 14/1/1 12/1/1 13/1/1
f 15/1/1 13/1/1 11/1/1
f 16/2/1 14/2/1 13/2/1
f 16/1/1 13/1/1 15/1/1
f 17/1/1 15/1/1 11/1/1
f 18/2/1 16/2/1 15/2/1
f 18/1/1 15/1/1 17/1/1
f 19/2/1 14/2/1 16/2/1
f 19/2/1 16/2/1 18/2/1
f 21/4/1 19/4/1 18/4/1
f 21/4/1 20/4/1 19/4/1
f 21/4/1 18/4/1 17/4/1
f 22/4/1 20/4/1 21/4/1
f 23/4/1 21/4/1 17/4/1
f 24/4/1 21/4/1 23/4/1
f 27/4/1 26/4/1 25/4/1
f 28/4/1 26/4/1 27/4/1
f 31/4/1 30/4/1 29/4/1
f 32/4/1 30/4/1 31/4/1
f 35/4/1 34/4/1 33/4/1
f 36/4/1 34/4/1 35/4/1
f 37/4/2 38/4/2 39/4/2
f 39/4/2 38/4/2 40/4/2
f 41/4/2 42/4/2 43/4/2
f 43/4/2 42/4/2 44/4/2
f 45/4/2 46/4/2 47/4/2
f 47/4/2 46/4/2 48/4/2
f 49/4/2 50/4/2 51/4/2
f 51/4/2 50/4/2 52/4/2
f 49/4/2 51/4/2 53/4/2
f 52/4/2 50/4/2 54/4/2
f 49/4/2 53/4/2 55/4/2
f 53/4/2 54/4/2 55/4/2
f 54/4/2 50/4/2 56/4/2
f 55/4/2 54/4/2 56/4/2
f 55/1/2 56/1/2 57/1/2
f 57/1/2 56/1/2 58/1/2
f 55/1/2 57/1/2 59/1/2
f 57/2/2 58/2/2 60/2/2
f 59/1/2 57/1/2 60/1/2
f 55/1/2 59/1/2 61/1/2
f 59/2/2 60/2/2 62/2/2
f 61/1/2 59/1/2 62/1/2
f 60/2/2 58/2/2 63/2/2
f 62/2/2 60/2/2 63/2/2
f 62/4/2 63/4/2 65/4/2
f 63/4/2 64/4/2 65/4/2
f 61/4/2 62/4/2 65/4/2
f 65/4/2 64/4/2 66/4/2
f 61/4/2 65/4/2 67/4/2
f 67/4/2 65/4/2 68/4/2
f 69/4/2 70/4/2 71/4/2
f 71/4/2 70/4/2 72/4/2
f 75/4/3 74/4/3 73/4/3
f 76/4/3 74/4/3 75/4/3
f 79/4/3 78/4/3 77/4/3
f 80/4/3 78/4/3 79/4/3
f 85/1/3 83/1/3 82/1/3
f 86/1/3 83/1/3 85/1/3
f 87/1/3 85/1/3 82/1/3
f 87/3/3 86/3/3 85/3/3
f 88/1/3 83/1/3 86/1/3
f 88/3/3 86/3/3 87/3/3
f 89/1/3 87/1/3 82/1/3
f 89/1/3 88/1/3 87/1/3
f 90/1/3 83/1/3 88/1/3
f 90/1/3 88/1/3 89/1/3
f 91/1/3 89/1/3 82/1/3
f 91/3/3 90/3/3 89/3/3
f 92/1/3 83/1/3 90/1/3
f 92/3/3 90/3/3 91/3/3
f 93/4/3 82/4/3 81/4/3
f 94/1/3 91/1/3 82/1/3
f 94/4/3 82/4/3 93/4/3
f 94/1/3 92/1/3 91/1/3
f 95/1/3 83/1/3 92/1/3
f 95/1/3 92/1/3 94/1/3
f 95/4/3 84/4/3 83/4/3
f 96/4/3 84/4/3 95/4/3
f 99/4/3 98/4/3 97/4/3
f 100/4/3 98/4/3 99/4/3
f 103/4/3 102/4/3 101/4/3
f 104/4/3 102/4/3 103/4/3
f 107/4/3 106/4/3 105/4/3
f 108/4/3 106/4/3 107/4/3
f 111/4/3 110/4/3 109/4/3
f 112/4/3 110/4/3 111/4/3
f 113/4/4 114/4/4 115/4/4
f 115/4/4 114/4/4 116/4/4
f 117/4/4 118/4/4 119/4/4
f 119/4/4 118/4/4 120/4/4
f 121/4/4 122/4/4 123/4/4
f 123/4/4 122/4/4 124/4/4
f 125/4/4 126/4/4 127/4/4
f 127/4/4 126/4/4 128/4/4
f 129/4/4 130/4/4 135/4/4
f 130/1/4 131/1/4 136/1/4
f 135/4/4 130/4/4 136/4/4
f 131/2/4 132/2/4 137/2/4
f 136/1/4 131/1/4 137/1/4
f 137/2/4 132/2/4 138/2/4
f 133/4/4 134/4/4 139/4/4
f 139/4/4 134/4/4 140/4/4
f 141/4/4 142/4/4 143/4/4
f 143/4/4 142/4/4 144/4/4
f 149/4/5 146/4/5 145/4/5
f 150/4/5 146/4/5 149/4/5
f 151/4/5 148/4/5 147/4/5
f 152/4/5 148/4/5 151/4/5
f 155/4/5 154/4/5 153/4/5
f 156/4/5 154/4/5 155/4/5
f 157/4/5 154/4/5 156/4/5
f 158/4/5 154/4/5 157/4/5
f 159/4/5 155/4/5 153/4/5
f 160/4/5 157/4/5 156/4/5
f 161/4/5 157/4/5 160/4/5
f 162/4/5 154/4/5 158/4/5
f 163/4/5 161/4/5 160/4/5
f 163/4/5 162/4/5 161/4/5
f 163/4/5 159/4/5 153/4/5
f 163/4/5 160/4/5 159/4/5
f 164/4/5 154/4/5 162/4/5
f 164/4/5 162/4/5 163/4/5
f 169/4/5 166/4/5 165/4/5
f 172/4/5 168/4/5 167/4/5
f 173/4/5 170/4/5 169/4/5
f 173/4/5 169/4/5 165/4/5
f 174/4/5 170/4/5 173/4/5
f 175/4/5 172/4/5 171/4/5
f 176/4/5 168/4/5 172/4/5
f 176/4/5 172/4/5 175/4/5
f 179/4/5 178/4/5 177/4/5
f 180/4/5 178/4/5 179/4/5
f 181/4/6 182/4/6 185/4/6
f 183/4/6 184/4/6 188/4/6
f 185/4/6 186/4/6 189/4/6
f 181/4/6 185/4/6 189/4/6
f 189/4/6 186/4/6 190/4/6
f 187/4/6 188/4/6 191/4/6
f 188/4/6 184/4/6 192/4/6
f 191/4/6 188/4/6 192/4/6
f 193/4/6 194/4/6 195/4/6
f 195/4/6 194/4/6 196/4/6
f 197/4/6 198/4/6 199/4/6
f 199/4/6 198/4/6 200/4/6
