# MagicaVoxel @ ephtracy

# material
mtllib kocsi.2.mtl
usemtl palette

# normals
vn -1 0 0
vn 1 0 0
vn 0 0 1
vn 0 0 -1
vn 0 -1 0
vn 0 1 0

# texcoords
vt 0.0566406 0.5
vt 0.478516 0.5
vt 0.537109 0.5
vt 0.580078 0.5
vt 0.775391 0.5
vt 0.791016 0.5
vt 0.978516 0.5
vt 0.982422 0.5
vt 0.986328 0.5
vt 0.994141 0.5

# verts
v -10 2 13
v -10 2 1
v -10 3 12
v -10 3 11
v -10 3 3
v -10 3 2
v -10 4 12
v -10 4 11
v -10 4 3
v -10 4 2
v -10 6 13
v -10 6 1
v -6 0 13
v -6 0 12
v -6 0 2
v -6 0 1
v -6 1 12
v -6 1 2
v -6 2 13
v -6 2 12
v -6 2 2
v -6 2 1
v -6 5 13
v -6 5 9
v -6 5 8
v -6 5 1
v -6 6 12
v -6 6 9
v -6 6 8
v -6 6 5
v -6 6 2
v -6 7 8
v -6 7 5
v -6 8 12
v -6 8 2
v -6 9 13
v -6 9 1
v 2 5 15
v 2 5 13
v 2 5 1
v 2 5 -1
v 2 7 15
v 2 7 13
v 2 7 1
v 2 7 -1
v 4 0 13
v 4 0 12
v 4 0 2
v 4 0 1
v 4 1 13
v 4 1 12
v 4 1 2
v 4 1 1
v 7 2 12
v 7 2 2
v 7 3 12
v 7 3 2
v -9 5 13
v -9 5 1
v -9 6 13
v -9 6 1
v -6 2 12
v -6 2 2
v -6 3 12
v -6 3 2
v -3 0 13
v -3 0 12
v -3 0 2
v -3 0 1
v -3 1 13
v -3 1 12
v -3 1 2
v -3 1 1
v 3 5 15
v 3 5 13
v 3 5 8
v 3 5 7
v 3 5 4
v 3 5 3
v 3 5 1
v 3 5 -1
v 3 6 12
v 3 6 10
v 3 6 8
v 3 6 7
v 3 6 4
v 3 6 3
v 3 6 2
v 3 7 15
v 3 7 13
v 3 7 10
v 3 7 8
v 3 7 7
v 3 7 4
v 3 7 1
v 3 7 -1
v 3 8 12
v 3 8 2
v 3 9 13
v 3 9 1
v 7 0 13
v 7 0 12
v 7 0 2
v 7 0 1
v 7 1 12
v 7 1 2
v 7 2 13
v 7 2 12
v 7 2 2
v 7 2 1
v 9 2 13
v 9 2 11
v 9 2 3
v 9 2 1
v 9 3 12
v 9 3 11
v 9 3 3
v 9 3 2
v 9 4 12
v 9 4 11
v 9 4 3
v 9 4 2
v 9 5 13
v 9 5 1
v 2 5 15
v 2 7 15
v 3 5 15
v 3 7 15
v -10 2 13
v -10 6 13
v -9 5 13
v -9 6 13
v -6 0 13
v -6 2 13
v -6 3 13
v -6 5 13
v -6 9 13
v -5 1 13
v -5 2 13
v -5 5 13
v -5 8 13
v -4 1 13
v -4 2 13
v -3 0 13
v -3 1 13
v -3 3 13
v 2 5 13
v 2 7 13
v 2 8 13
v 3 5 13
v 3 7 13
v 3 9 13
v 4 0 13
v 4 1 13
v 4 3 13
v 5 1 13
v 5 2 13
v 6 1 13
v 6 2 13
v 7 0 13
v 7 2 13
v 7 3 13
v 9 2 13
v 9 5 13
v -6 0 2
v -6 1 2
v -6 2 2
v -6 3 2
v -3 0 2
v -3 1 2
v -3 2 2
v -3 3 2
v 4 0 2
v 4 1 2
v 4 2 2
v 4 3 2
v 7 0 2
v 7 1 2
v 7 2 2
v 7 3 2
v -6 0 12
v -6 1 12
v -6 2 12
v -6 3 12
v -3 0 12
v -3 1 12
v -3 2 12
v -3 3 12
v 4 0 12
v 4 1 12
v 4 2 12
v 4 3 12
v 7 0 12
v 7 1 12
v 7 2 12
v 7 3 12
v -10 2 1
v -10 6 1
v -9 5 1
v -9 6 1
v -6 0 1
v -6 2 1
v -6 3 1
v -6 5 1
v -6 9 1
v -5 1 1
v -5 2 1
v -5 5 1
v -5 8 1
v -4 1 1
v -4 2 1
v -3 0 1
v -3 1 1
v -3 3 1
v 2 5 1
v 2 7 1
v 2 8 1
v 3 5 1
v 3 7 1
v 3 9 1
v 4 0 1
v 4 1 1
v 4 3 1
v 5 1 1
v 5 2 1
v 6 1 1
v 6 2 1
v 7 0 1
v 7 2 1
v 7 3 1
v 9 2 1
v 9 5 1
v 2 5 -1
v 2 7 -1
v 3 5 -1
v 3 7 -1
v -6 0 13
v -3 0 13
v 4 0 13
v 7 0 13
v -6 0 12
v -3 0 12
v 4 0 12
v 7 0 12
v -6 0 2
v -3 0 2
v 4 0 2
v 7 0 2
v -6 0 1
v -3 0 1
v 4 0 1
v 7 0 1
v -3 1 13
v 4 1 13
v -6 1 12
v -3 1 12
v 4 1 12
v 7 1 12
v -6 1 2
v -3 1 2
v 4 1 2
v 7 1 2
v -3 1 1
v 4 1 1
v -10 2 13
v -6 2 13
v 7 2 13
v 9 2 13
v -9 2 12
v -6 2 12
v 7 2 12
v 8 2 12
v 8 2 11
v 9 2 11
v 8 2 3
v 9 2 3
v -9 2 2
v -6 2 2
v 7 2 2
v 8 2 2
v -10 2 1
v -6 2 1
v 7 2 1
v 9 2 1
v -6 3 12
v -3 3 12
v 4 3 12
v 7 3 12
v -6 3 2
v -3 3 2
v 4 3 2
v 7 3 2
v 2 5 15
v 3 5 15
v 2 5 13
v 3 5 13
v 2 5 1
v 3 5 1
v 2 5 -1
v 3 5 -1
v -6 2 12
v -3 2 12
v 4 2 12
v 7 2 12
v -6 2 2
v -3 2 2
v 4 2 2
v 7 2 2
v -9 5 13
v -6 5 13
v 3 5 13
v 9 5 13
v -6 5 9
v -6 5 8
v 3 5 8
v 3 5 7
v 3 5 4
v 3 5 3
v -9 5 1
v -6 5 1
v 3 5 1
v 9 5 1
v -10 6 13
v -9 6 13
v -10 6 1
v -9 6 1
v 2 7 15
v 3 7 15
v 2 7 13
v 3 7 13
v 2 7 1
v 3 7 1
v 2 7 -1
v 3 7 -1
v -6 9 13
v 3 9 13
v -6 9 1
v 3 9 1

# faces
f 3/3/1 2/3/1 1/3/1
f 4/3/1 2/3/1 3/3/1
f 5/3/1 2/3/1 4/3/1
f 6/3/1 2/3/1 5/3/1
f 7/3/1 3/3/1 1/3/1
f 7/1/1 4/1/1 3/1/1
f 8/3/1 5/3/1 4/3/1
f 8/1/1 4/1/1 7/1/1
f 9/1/1 6/1/1 5/1/1
f 9/3/1 5/3/1 8/3/1
f 10/3/1 2/3/1 6/3/1
f 10/1/1 6/1/1 9/1/1
f 11/3/1 9/3/1 8/3/1
f 11/3/1 8/3/1 7/3/1
f 11/3/1 10/3/1 9/3/1
f 11/3/1 7/3/1 1/3/1
f 12/3/1 2/3/1 10/3/1
f 12/3/1 10/3/1 11/3/1
f 17/10/1 14/10/1 13/10/1
f 18/10/1 16/10/1 15/10/1
f 19/10/1 17/10/1 13/10/1
f 20/4/1 18/4/1 17/4/1
f 20/10/1 17/10/1 19/10/1
f 21/10/1 16/10/1 18/10/1
f 21/4/1 18/4/1 20/4/1
f 22/10/1 16/10/1 21/10/1
f 27/3/1 24/3/1 23/3/1
f 28/8/1 25/8/1 24/8/1
f 28/3/1 24/3/1 27/3/1
f 29/3/1 26/3/1 25/3/1
f 29/8/1 25/8/1 28/8/1
f 30/3/1 26/3/1 29/3/1
f 31/3/1 26/3/1 30/3/1
f 32/5/1 28/5/1 27/5/1
f 32/5/1 29/5/1 28/5/1
f 32/8/1 30/8/1 29/8/1
f 33/5/1 31/5/1 30/5/1
f 33/8/1 30/8/1 32/8/1
f 34/3/1 27/3/1 23/3/1
f 34/5/1 32/5/1 27/5/1
f 34/5/1 33/5/1 32/5/1
f 35/3/1 26/3/1 31/3/1
f 35/5/1 33/5/1 34/5/1
f 35/5/1 31/5/1 33/5/1
f 36/3/1 34/3/1 23/3/1
f 36/3/1 35/3/1 34/3/1
f 37/3/1 26/3/1 35/3/1
f 37/3/1 35/3/1 36/3/1
f 42/6/1 39/6/1 38/6/1
f 43/6/1 39/6/1 42/6/1
f 44/6/1 41/6/1 40/6/1
f 45/6/1 41/6/1 44/6/1
f 50/10/1 47/10/1 46/10/1
f 51/10/1 47/10/1 50/10/1
f 52/10/1 49/10/1 48/10/1
f 53/10/1 49/10/1 52/10/1
f 56/4/1 55/4/1 54/4/1
f 57/4/1 55/4/1 56/4/1
f 58/3/2 59/3/2 60/3/2
f 60/3/2 59/3/2 61/3/2
f 62/4/2 63/4/2 64/4/2
f 64/4/2 63/4/2 65/4/2
f 66/10/2 67/10/2 70/10/2
f 70/10/2 67/10/2 71/10/2
f 68/10/2 69/10/2 72/10/2
f 72/10/2 69/10/2 73/10/2
f 75/3/2 76/3/2 82/3/2
f 82/3/2 76/3/2 83/3/2
f 76/8/2 77/8/2 84/8/2
f 83/3/2 76/3/2 84/3/2
f 77/3/2 78/3/2 85/3/2
f 84/8/2 77/8/2 85/8/2
f 78/8/2 79/8/2 86/8/2
f 85/3/2 78/3/2 86/3/2
f 79/3/2 80/3/2 87/3/2
f 86/8/2 79/8/2 87/8/2
f 87/3/2 80/3/2 88/3/2
f 74/6/2 75/6/2 89/6/2
f 75/3/2 82/3/2 90/3/2
f 89/6/2 75/6/2 90/6/2
f 82/5/2 83/5/2 91/5/2
f 83/8/2 84/8/2 91/8/2
f 84/5/2 85/5/2 92/5/2
f 91/8/2 84/8/2 92/8/2
f 85/8/2 86/8/2 93/8/2
f 92/5/2 85/5/2 93/5/2
f 86/5/2 87/5/2 94/5/2
f 93/8/2 86/8/2 94/8/2
f 87/5/2 88/5/2 94/5/2
f 88/3/2 80/3/2 95/3/2
f 80/6/2 81/6/2 95/6/2
f 95/6/2 81/6/2 96/6/2
f 93/5/2 94/5/2 97/5/2
f 90/3/2 82/3/2 97/3/2
f 92/5/2 93/5/2 97/5/2
f 82/5/2 91/5/2 97/5/2
f 91/5/2 92/5/2 97/5/2
f 94/5/2 88/5/2 98/5/2
f 97/5/2 94/5/2 98/5/2
f 88/3/2 95/3/2 98/3/2
f 90/3/2 97/3/2 99/3/2
f 97/3/2 98/3/2 99/3/2
f 98/3/2 95/3/2 100/3/2
f 99/3/2 98/3/2 100/3/2
f 101/10/2 102/10/2 105/10/2
f 103/10/2 104/10/2 106/10/2
f 101/10/2 105/10/2 107/10/2
f 105/4/2 106/4/2 108/4/2
f 107/10/2 105/10/2 108/10/2
f 106/10/2 104/10/2 109/10/2
f 108/4/2 106/4/2 109/4/2
f 109/10/2 104/10/2 110/10/2
f 111/3/2 112/3/2 115/3/2
f 112/7/2 113/7/2 116/7/2
f 115/3/2 112/3/2 116/3/2
f 113/3/2 114/3/2 117/3/2
f 116/7/2 113/7/2 117/7/2
f 117/3/2 114/3/2 118/3/2
f 115/2/2 116/2/2 119/2/2
f 111/3/2 115/3/2 119/3/2
f 116/7/2 117/7/2 120/7/2
f 119/2/2 116/2/2 120/2/2
f 117/2/2 118/2/2 121/2/2
f 120/7/2 117/7/2 121/7/2
f 118/3/2 114/3/2 122/3/2
f 121/2/2 118/2/2 122/2/2
f 120/3/2 121/3/2 123/3/2
f 119/3/2 120/3/2 123/3/2
f 121/3/2 122/3/2 123/3/2
f 111/3/2 119/3/2 123/3/2
f 122/3/2 114/3/2 124/3/2
f 123/3/2 122/3/2 124/3/2
f 127/6/3 126/6/3 125/6/3
f 128/6/3 126/6/3 127/6/3
f 131/3/3 130/3/3 129/3/3
f 132/3/3 130/3/3 131/3/3
f 134/3/3 131/3/3 129/3/3
f 135/3/3 131/3/3 134/3/3
f 136/3/3 131/3/3 135/3/3
f 138/10/3 134/10/3 133/10/3
f 138/10/3 135/10/3 134/10/3
f 139/10/3 135/10/3 138/10/3
f 140/3/3 136/3/3 135/3/3
f 140/3/3 137/3/3 136/3/3
f 141/3/3 137/3/3 140/3/3
f 142/8/3 139/8/3 138/8/3
f 142/10/3 138/10/3 133/10/3
f 143/10/3 135/10/3 139/10/3
f 143/8/3 139/8/3 142/8/3
f 144/10/3 142/10/3 133/10/3
f 144/10/3 143/10/3 142/10/3
f 145/10/3 143/10/3 144/10/3
f 146/10/3 135/10/3 143/10/3
f 146/10/3 143/10/3 145/10/3
f 146/3/3 140/3/3 135/3/3
f 147/3/3 140/3/3 146/3/3
f 147/3/3 146/3/3 145/3/3
f 147/5/3 141/5/3 140/5/3
f 148/5/3 141/5/3 147/5/3
f 149/3/3 137/3/3 141/3/3
f 149/5/3 141/5/3 148/5/3
f 150/3/3 147/3/3 145/3/3
f 151/3/3 149/3/3 148/3/3
f 152/3/3 137/3/3 149/3/3
f 152/3/3 149/3/3 151/3/3
f 154/3/3 150/3/3 145/3/3
f 155/3/3 150/3/3 154/3/3
f 156/10/3 154/10/3 153/10/3
f 156/10/3 155/10/3 154/10/3
f 157/10/3 155/10/3 156/10/3
f 158/10/3 156/10/3 153/10/3
f 158/8/3 157/8/3 156/8/3
f 159/10/3 155/10/3 157/10/3
f 159/8/3 157/8/3 158/8/3
f 160/10/3 158/10/3 153/10/3
f 160/10/3 159/10/3 158/10/3
f 161/10/3 155/10/3 159/10/3
f 161/10/3 159/10/3 160/10/3
f 162/3/3 150/3/3 155/3/3
f 162/10/3 155/10/3 161/10/3
f 163/3/3 162/3/3 161/3/3
f 164/3/3 150/3/3 162/3/3
f 164/3/3 162/3/3 163/3/3
f 169/10/3 166/10/3 165/10/3
f 170/10/3 166/10/3 169/10/3
f 171/10/3 168/10/3 167/10/3
f 172/10/3 168/10/3 171/10/3
f 175/3/3 172/3/3 171/3/3
f 176/3/3 172/3/3 175/3/3
f 177/10/3 174/10/3 173/10/3
f 178/10/3 174/10/3 177/10/3
f 179/10/3 176/10/3 175/10/3
f 180/10/3 176/10/3 179/10/3
f 181/10/4 182/10/4 185/10/4
f 185/10/4 182/10/4 186/10/4
f 183/10/4 184/10/4 187/10/4
f 187/10/4 184/10/4 188/10/4
f 187/3/4 188/3/4 191/3/4
f 191/3/4 188/3/4 192/3/4
f 189/10/4 190/10/4 193/10/4
f 193/10/4 190/10/4 194/10/4
f 191/10/4 192/10/4 195/10/4
f 195/10/4 192/10/4 196/10/4
f 197/3/4 198/3/4 199/3/4
f 199/3/4 198/3/4 200/3/4
f 197/3/4 199/3/4 202/3/4
f 202/3/4 199/3/4 203/3/4
f 203/3/4 199/3/4 204/3/4
f 201/10/4 202/10/4 206/10/4
f 202/10/4 203/10/4 206/10/4
f 206/10/4 203/10/4 207/10/4
f 203/3/4 204/3/4 208/3/4
f 204/3/4 205/3/4 208/3/4
f 208/3/4 205/3/4 209/3/4
f 206/8/4 207/8/4 210/8/4
f 201/10/4 206/10/4 210/10/4
f 207/10/4 203/10/4 211/10/4
f 210/8/4 207/8/4 211/8/4
f 201/10/4 210/10/4 212/10/4
f 210/10/4 211/10/4 212/10/4
f 212/10/4 211/10/4 213/10/4
f 211/10/4 203/10/4 214/10/4
f 213/10/4 211/10/4 214/10/4
f 203/3/4 208/3/4 214/3/4
f 214/3/4 208/3/4 215/3/4
f 213/3/4 214/3/4 215/3/4
f 208/5/4 209/5/4 215/5/4
f 215/5/4 209/5/4 216/5/4
f 209/3/4 205/3/4 217/3/4
f 216/5/4 209/5/4 217/5/4
f 213/3/4 215/3/4 218/3/4
f 216/3/4 217/3/4 219/3/4
f 217/3/4 205/3/4 220/3/4
f 219/3/4 217/3/4 220/3/4
f 213/3/4 218/3/4 222/3/4
f 222/3/4 218/3/4 223/3/4
f 221/10/4 222/10/4 224/10/4
f 222/10/4 223/10/4 224/10/4
f 224/10/4 223/10/4 225/10/4
f 221/10/4 224/10/4 226/10/4
f 224/8/4 225/8/4 226/8/4
f 225/10/4 223/10/4 227/10/4
f 226/8/4 225/8/4 227/8/4
f 221/10/4 226/10/4 228/10/4
f 226/10/4 227/10/4 228/10/4
f 227/10/4 223/10/4 229/10/4
f 228/10/4 227/10/4 229/10/4
f 223/3/4 218/3/4 230/3/4
f 229/10/4 223/10/4 230/10/4
f 229/3/4 230/3/4 231/3/4
f 230/3/4 218/3/4 232/3/4
f 231/3/4 230/3/4 232/3/4
f 233/6/4 234/6/4 235/6/4
f 235/6/4 234/6/4 236/6/4
f 241/10/5 238/10/5 237/10/5
f 242/10/5 238/10/5 241/10/5
f 243/10/5 240/10/5 239/10/5
f 244/10/5 240/10/5 243/10/5
f 249/10/5 246/10/5 245/10/5
f 250/10/5 246/10/5 249/10/5
f 251/10/5 248/10/5 247/10/5
f 252/10/5 248/10/5 251/10/5
f 256/3/5 254/3/5 253/3/5
f 257/3/5 254/3/5 256/3/5
f 259/4/5 256/4/5 255/4/5
f 259/4/5 258/4/5 257/4/5
f 259/4/5 257/4/5 256/4/5
f 260/4/5 258/4/5 259/4/5
f 261/4/5 258/4/5 260/4/5
f 262/4/5 258/4/5 261/4/5
f 263/3/5 261/3/5 260/3/5
f 264/3/5 261/3/5 263/3/5
f 269/3/5 266/3/5 265/3/5
f 270/3/5 266/3/5 269/3/5
f 271/3/5 268/3/5 267/3/5
f 272/3/5 268/3/5 271/3/5
f 273/4/5 272/4/5 271/4/5
f 273/3/5 268/3/5 272/3/5
f 274/3/5 268/3/5 273/3/5
f 275/4/5 273/4/5 271/4/5
f 275/7/5 274/7/5 273/7/5
f 276/7/5 274/7/5 275/7/5
f 277/4/5 270/4/5 269/4/5
f 277/3/5 269/3/5 265/3/5
f 278/4/5 270/4/5 277/4/5
f 279/4/5 275/4/5 271/4/5
f 280/3/5 276/3/5 275/3/5
f 280/4/5 275/4/5 279/4/5
f 281/3/5 278/3/5 277/3/5
f 281/3/5 277/3/5 265/3/5
f 282/3/5 278/3/5 281/3/5
f 283/3/5 280/3/5 279/3/5
f 284/3/5 276/3/5 280/3/5
f 284/3/5 280/3/5 283/3/5
f 289/9/5 286/9/5 285/9/5
f 289/9/5 288/9/5 287/9/5
f 289/9/5 287/9/5 286/9/5
f 290/9/5 288/9/5 289/9/5
f 291/9/5 288/9/5 290/9/5
f 292/9/5 288/9/5 291/9/5
f 295/6/5 294/6/5 293/6/5
f 296/6/5 294/6/5 295/6/5
f 299/6/5 298/6/5 297/6/5
f 300/6/5 298/6/5 299/6/5
f 301/4/6 302/4/6 305/4/6
f 303/4/6 304/4/6 305/4/6
f 302/4/6 303/4/6 305/4/6
f 305/4/6 304/4/6 306/4/6
f 306/4/6 304/4/6 307/4/6
f 307/4/6 304/4/6 308/4/6
f 309/3/6 310/3/6 313/3/6
f 309/3/6 313/3/6 314/3/6
f 311/3/6 312/3/6 315/3/6
f 315/3/6 312/3/6 316/3/6
f 316/3/6 312/3/6 317/3/6
f 317/3/6 312/3/6 318/3/6
f 309/3/6 314/3/6 319/3/6
f 319/3/6 314/3/6 320/3/6
f 318/3/6 312/3/6 321/3/6
f 321/3/6 312/3/6 322/3/6
f 323/3/6 324/3/6 325/3/6
f 325/3/6 324/3/6 326/3/6
f 327/6/6 328/6/6 329/6/6
f 329/6/6 328/6/6 330/6/6
f 331/6/6 332/6/6 333/6/6
f 333/6/6 332/6/6 334/6/6
f 335/3/6 336/3/6 337/3/6
f 337/3/6 336/3/6 338/3/6
