# MagicaVoxel @ ephtracy

# material
mtllib pistol.mtl
usemtl palette

# normals
vn -1 0 0
vn 1 0 0
vn 0 0 1
vn 0 0 -1
vn 0 -1 0
vn 0 1 0

# texcoords
vt 0.392578 0.5
vt 0.966797 0.5
vt 0.986328 0.5
vt 0.994141 0.5

# verts
v -7.5 8 2
v -7.5 8 -1
v -7.5 9 2
v -7.5 9 -1
v -7.5 11 2
v -7.5 11 -1
v -6.5 7 2
v -6.5 7 -1
v -6.5 8 2
v -6.5 8 -1
v -5.5 6 1
v -5.5 6 -0
v -5.5 7 1
v -5.5 7 -0
v -2.5 5 1
v -2.5 5 -0
v -2.5 6 1
v -2.5 6 -0
v -1.5 4 1
v -1.5 4 -0
v -1.5 5 1
v -1.5 5 -0
v -0.5 6 1
v -0.5 6 -0
v -0.5 7 1
v -0.5 7 -0
v 0.5 10 2
v 0.5 10 1
v 0.5 10 -0
v 0.5 10 -1
v 0.5 11 2
v 0.5 11 1
v 0.5 11 -0
v 0.5 11 -1
v 1.5 3 2
v 1.5 3 -1
v 1.5 4 1
v 1.5 4 -0
v 1.5 5 1
v 1.5 5 -0
v 1.5 7 2
v 1.5 7 -1
v 2.5 0 2
v 2.5 0 -1
v 2.5 1 2
v 2.5 1 -1
v 2.5 3 2
v 2.5 3 -1
v -1.5 5 1
v -1.5 5 -0
v -1.5 7 1
v -1.5 7 -0
v -1.5 10 2
v -1.5 10 1
v -1.5 10 -0
v -1.5 10 -1
v -1.5 11 2
v -1.5 11 1
v -1.5 11 -0
v -1.5 11 -1
v 0.5 6 1
v 0.5 6 -0
v 0.5 7 1
v 0.5 7 -0
v 4.5 5 2
v 4.5 5 -1
v 4.5 7 2
v 4.5 7 -1
v 5.5 3 2
v 5.5 3 -1
v 5.5 5 2
v 5.5 5 -1
v 5.5 7 2
v 5.5 7 -1
v 5.5 8 2
v 5.5 8 -1
v 5.5 9 1
v 5.5 9 -0
v 5.5 10 1
v 5.5 10 -0
v 5.5 11 2
v 5.5 11 -1
v 6.5 0 2
v 6.5 0 -1
v 6.5 3 2
v 6.5 3 -1
v 6.5 9 1
v 6.5 9 -0
v 6.5 10 1
v 6.5 10 -0
v -7.5 8 2
v -7.5 9 2
v -7.5 11 2
v -6.5 7 2
v -6.5 8 2
v -1.5 7 2
v -1.5 8 2
v -1.5 10 2
v -1.5 11 2
v 0.5 10 2
v 0.5 11 2
v 1.5 3 2
v 1.5 7 2
v 1.5 8 2
v 1.5 9 2
v 1.5 10 2
v 1.5 11 2
v 2.5 0 2
v 2.5 1 2
v 2.5 3 2
v 2.5 9 2
v 2.5 10 2
v 2.5 11 2
v 3.5 5 2
v 3.5 7 2
v 3.5 8 2
v 3.5 9 2
v 3.5 10 2
v 4.5 3 2
v 4.5 5 2
v 4.5 7 2
v 4.5 8 2
v 4.5 9 2
v 5.5 1 2
v 5.5 3 2
v 5.5 5 2
v 5.5 7 2
v 5.5 8 2
v 5.5 11 2
v 6.5 0 2
v 6.5 3 2
v -5.5 6 1
v -5.5 7 1
v -2.5 5 1
v -2.5 6 1
v -1.5 4 1
v -1.5 5 1
v -1.5 7 1
v -1.5 10 1
v -1.5 11 1
v -0.5 6 1
v -0.5 7 1
v 0.5 6 1
v 0.5 7 1
v 0.5 10 1
v 0.5 11 1
v 1.5 4 1
v 1.5 5 1
v 5.5 9 1
v 5.5 10 1
v 6.5 9 1
v 6.5 10 1
v -5.5 6 -0
v -5.5 7 -0
v -2.5 5 -0
v -2.5 6 -0
v -1.5 4 -0
v -1.5 5 -0
v -1.5 7 -0
v -1.5 10 -0
v -1.5 11 -0
v -0.5 6 -0
v -0.5 7 -0
v 0.5 6 -0
v 0.5 7 -0
v 0.5 10 -0
v 0.5 11 -0
v 1.5 4 -0
v 1.5 5 -0
v 5.5 9 -0
v 5.5 10 -0
v 6.5 9 -0
v 6.5 10 -0
v -7.5 8 -1
v -7.5 9 -1
v -7.5 11 -1
v -6.5 7 -1
v -6.5 8 -1
v -1.5 7 -1
v -1.5 8 -1
v -1.5 10 -1
v -1.5 11 -1
v 0.5 10 -1
v 0.5 11 -1
v 1.5 3 -1
v 1.5 7 -1
v 1.5 8 -1
v 1.5 9 -1
v 1.5 10 -1
v 1.5 11 -1
v 2.5 0 -1
v 2.5 1 -1
v 2.5 3 -1
v 2.5 9 -1
v 2.5 10 -1
v 2.5 11 -1
v 3.5 5 -1
v 3.5 7 -1
v 3.5 8 -1
v 3.5 9 -1
v 3.5 10 -1
v 4.5 3 -1
v 4.5 5 -1
v 4.5 7 -1
v 4.5 8 -1
v 4.5 9 -1
v 5.5 1 -1
v 5.5 3 -1
v 5.5 5 -1
v 5.5 7 -1
v 5.5 8 -1
v 5.5 11 -1
v 6.5 0 -1
v 6.5 3 -1
v 2.5 0 2
v 6.5 0 2
v 2.5 0 -1
v 6.5 0 -1
v 1.5 3 2
v 2.5 3 2
v 1.5 3 -1
v 2.5 3 -1
v -1.5 4 1
v 1.5 4 1
v -1.5 4 -0
v 1.5 4 -0
v -2.5 5 1
v -1.5 5 1
v -2.5 5 -0
v -1.5 5 -0
v -5.5 6 1
v -2.5 6 1
v -0.5 6 1
v 0.5 6 1
v -5.5 6 -0
v -2.5 6 -0
v -0.5 6 -0
v 0.5 6 -0
v -6.5 7 2
v -1.5 7 2
v 1.5 7 2
v 4.5 7 2
v 5.5 7 2
v -5.5 7 1
v -1.5 7 1
v -0.5 7 1
v 0.5 7 1
v -5.5 7 -0
v -1.5 7 -0
v -0.5 7 -0
v 0.5 7 -0
v -6.5 7 -1
v -1.5 7 -1
v 1.5 7 -1
v 4.5 7 -1
v 5.5 7 -1
v -7.5 8 2
v -6.5 8 2
v -7.5 8 -1
v -6.5 8 -1
v 5.5 9 1
v 6.5 9 1
v 5.5 9 -0
v 6.5 9 -0
v 5.5 3 2
v 6.5 3 2
v 5.5 3 -1
v 6.5 3 -1
v 4.5 5 2
v 5.5 5 2
v -1.5 5 1
v 1.5 5 1
v -1.5 5 -0
v 1.5 5 -0
v 4.5 5 -1
v 5.5 5 -1
v -1.5 10 2
v 0.5 10 2
v -1.5 10 1
v 0.5 10 1
v 5.5 10 1
v 6.5 10 1
v -1.5 10 -0
v 0.5 10 -0
v 5.5 10 -0
v 6.5 10 -0
v -1.5 10 -1
v 0.5 10 -1
v -7.5 11 2
v -1.5 11 2
v 0.5 11 2
v 1.5 11 2
v 2.5 11 2
v 5.5 11 2
v -1.5 11 1
v 0.5 11 1
v -1.5 11 -0
v 0.5 11 -0
v -7.5 11 -1
v -1.5 11 -1
v 0.5 11 -1
v 1.5 11 -1
v 2.5 11 -1
v 5.5 11 -1

# faces
f 3/3/1 2/3/1 1/3/1
f 4/3/1 2/3/1 3/3/1
f 5/4/1 4/4/1 3/4/1
f 6/4/1 4/4/1 5/4/1
f 9/4/1 8/4/1 7/4/1
f 10/4/1 8/4/1 9/4/1
f 13/3/1 12/3/1 11/3/1
f 14/3/1 12/3/1 13/3/1
f 17/3/1 16/3/1 15/3/1
f 18/3/1 16/3/1 17/3/1
f 21/3/1 20/3/1 19/3/1
f 22/3/1 20/3/1 21/3/1
f 25/4/1 24/4/1 23/4/1
f 26/4/1 24/4/1 25/4/1
f 31/4/1 28/4/1 27/4/1
f 32/4/1 28/4/1 31/4/1
f 33/4/1 30/4/1 29/4/1
f 34/4/1 30/4/1 33/4/1
f 37/1/1 36/1/1 35/1/1
f 38/1/1 36/1/1 37/1/1
f 39/1/1 37/1/1 35/1/1
f 40/1/1 36/1/1 38/1/1
f 41/1/1 39/1/1 35/1/1
f 41/1/1 40/1/1 39/1/1
f 42/1/1 36/1/1 40/1/1
f 42/1/1 40/1/1 41/1/1
f 45/3/1 44/3/1 43/3/1
f 46/3/1 44/3/1 45/3/1
f 47/1/1 46/1/1 45/1/1
f 48/1/1 46/1/1 47/1/1
f 49/3/2 50/3/2 51/3/2
f 51/3/2 50/3/2 52/3/2
f 53/4/2 54/4/2 57/4/2
f 57/4/2 54/4/2 58/4/2
f 55/4/2 56/4/2 59/4/2
f 59/4/2 56/4/2 60/4/2
f 61/4/2 62/4/2 63/4/2
f 63/4/2 62/4/2 64/4/2
f 65/3/2 66/3/2 67/3/2
f 67/3/2 66/3/2 68/3/2
f 69/3/2 70/3/2 71/3/2
f 71/3/2 70/3/2 72/3/2
f 73/3/2 74/3/2 75/3/2
f 75/3/2 74/3/2 76/3/2
f 75/4/2 76/4/2 77/4/2
f 77/4/2 76/4/2 78/4/2
f 75/4/2 77/4/2 79/4/2
f 78/4/2 76/4/2 80/4/2
f 75/4/2 79/4/2 81/4/2
f 79/4/2 80/4/2 81/4/2
f 80/4/2 76/4/2 82/4/2
f 81/4/2 80/4/2 82/4/2
f 83/3/2 84/3/2 85/3/2
f 85/3/2 84/3/2 86/3/2
f 87/4/2 88/4/2 89/4/2
f 89/4/2 88/4/2 90/4/2
f 95/3/3 92/3/3 91/3/3
f 96/4/3 95/4/3 94/4/3
f 97/3/3 92/3/3 95/3/3
f 97/4/3 95/4/3 96/4/3
f 98/4/3 93/4/3 92/4/3
f 99/4/3 93/4/3 98/4/3
f 100/4/3 98/4/3 92/4/3
f 103/3/3 97/3/3 96/3/3
f 104/3/3 92/3/3 97/3/3
f 104/3/3 97/3/3 103/3/3
f 105/4/3 101/4/3 100/4/3
f 105/3/3 92/3/3 104/3/3
f 105/4/3 100/4/3 92/4/3
f 106/4/3 101/4/3 105/4/3
f 107/4/3 101/4/3 106/4/3
f 110/1/3 103/1/3 102/1/3
f 111/4/3 105/4/3 104/4/3
f 111/4/3 106/4/3 105/4/3
f 112/3/3 107/3/3 106/3/3
f 112/4/3 106/4/3 111/4/3
f 113/3/3 107/3/3 112/3/3
f 114/1/3 110/1/3 109/1/3
f 114/1/3 103/1/3 110/1/3
f 115/3/3 104/3/3 103/3/3
f 115/1/3 103/1/3 114/1/3
f 116/4/3 111/4/3 104/4/3
f 116/3/3 104/3/3 115/3/3
f 117/3/3 112/3/3 111/3/3
f 117/4/3 111/4/3 116/4/3
f 118/4/3 113/4/3 112/4/3
f 118/3/3 112/3/3 117/3/3
f 119/1/3 114/1/3 109/1/3
f 120/3/3 117/3/3 116/3/3
f 120/1/3 114/1/3 119/1/3
f 120/3/3 115/3/3 114/3/3
f 120/3/3 116/3/3 115/3/3
f 121/3/3 117/3/3 120/3/3
f 122/3/3 117/3/3 121/3/3
f 123/4/3 118/4/3 117/4/3
f 123/3/3 117/3/3 122/3/3
f 124/3/3 109/3/3 108/3/3
f 124/1/3 119/1/3 109/1/3
f 125/3/3 120/3/3 119/3/3
f 125/1/3 119/1/3 124/1/3
f 126/3/3 120/3/3 125/3/3
f 127/3/3 122/3/3 121/3/3
f 128/4/3 123/4/3 122/4/3
f 128/3/3 122/3/3 127/3/3
f 129/4/3 118/4/3 123/4/3
f 129/4/3 123/4/3 128/4/3
f 129/4/3 113/4/3 118/4/3
f 130/3/3 125/3/3 124/3/3
f 130/3/3 124/3/3 108/3/3
f 131/3/3 125/3/3 130/3/3
f 135/3/3 133/3/3 132/3/3
f 137/3/3 135/3/3 134/3/3
f 138/3/3 133/3/3 135/3/3
f 138/3/3 135/3/3 137/3/3
f 143/4/3 142/4/3 141/4/3
f 144/4/3 142/4/3 143/4/3
f 145/2/3 140/2/3 139/2/3
f 146/2/3 140/2/3 145/2/3
f 147/3/3 137/3/3 136/3/3
f 148/3/3 137/3/3 147/3/3
f 151/4/3 150/4/3 149/4/3
f 152/4/3 150/4/3 151/4/3
f 153/3/4 154/3/4 156/3/4
f 155/3/4 156/3/4 158/3/4
f 156/3/4 154/3/4 159/3/4
f 158/3/4 156/3/4 159/3/4
f 162/4/4 163/4/4 164/4/4
f 164/4/4 163/4/4 165/4/4
f 160/2/4 161/2/4 166/2/4
f 166/2/4 161/2/4 167/2/4
f 157/3/4 158/3/4 168/3/4
f 168/3/4 158/3/4 169/3/4
f 170/4/4 171/4/4 172/4/4
f 172/4/4 171/4/4 173/4/4
f 174/3/4 175/3/4 178/3/4
f 177/4/4 178/4/4 179/4/4
f 178/3/4 175/3/4 180/3/4
f 179/4/4 178/4/4 180/4/4
f 175/4/4 176/4/4 181/4/4
f 181/4/4 176/4/4 182/4/4
f 175/4/4 181/4/4 183/4/4
f 179/3/4 180/3/4 186/3/4
f 180/3/4 175/3/4 187/3/4
f 186/3/4 180/3/4 187/3/4
f 183/4/4 184/4/4 188/4/4
f 187/3/4 175/3/4 188/3/4
f 175/4/4 183/4/4 188/4/4
f 188/4/4 184/4/4 189/4/4
f 189/4/4 184/4/4 190/4/4
f 185/1/4 186/1/4 193/1/4
f 187/4/4 188/4/4 194/4/4
f 188/4/4 189/4/4 194/4/4
f 189/3/4 190/3/4 195/3/4
f 194/4/4 189/4/4 195/4/4
f 195/3/4 190/3/4 196/3/4
f 192/1/4 193/1/4 197/1/4
f 193/1/4 186/1/4 197/1/4
f 186/3/4 187/3/4 198/3/4
f 197/1/4 186/1/4 198/1/4
f 187/4/4 194/4/4 199/4/4
f 198/3/4 187/3/4 199/3/4
f 194/3/4 195/3/4 200/3/4
f 199/4/4 194/4/4 200/4/4
f 195/4/4 196/4/4 201/4/4
f 200/3/4 195/3/4 201/3/4
f 192/1/4 197/1/4 202/1/4
f 199/3/4 200/3/4 203/3/4
f 202/1/4 197/1/4 203/1/4
f 197/3/4 198/3/4 203/3/4
f 198/3/4 199/3/4 203/3/4
f 203/3/4 200/3/4 204/3/4
f 204/3/4 200/3/4 205/3/4
f 200/4/4 201/4/4 206/4/4
f 205/3/4 200/3/4 206/3/4
f 191/3/4 192/3/4 207/3/4
f 192/1/4 202/1/4 207/1/4
f 202/3/4 203/3/4 208/3/4
f 207/1/4 202/1/4 208/1/4
f 208/3/4 203/3/4 209/3/4
f 204/3/4 205/3/4 210/3/4
f 205/4/4 206/4/4 211/4/4
f 210/3/4 205/3/4 211/3/4
f 206/4/4 201/4/4 212/4/4
f 211/4/4 206/4/4 212/4/4
f 201/4/4 196/4/4 212/4/4
f 207/3/4 208/3/4 213/3/4
f 191/3/4 207/3/4 213/3/4
f 213/3/4 208/3/4 214/3/4
f 217/3/5 216/3/5 215/3/5
f 218/3/5 216/3/5 217/3/5
f 221/1/5 220/1/5 219/1/5
f 222/1/5 220/1/5 221/1/5
f 225/3/5 224/3/5 223/3/5
f 226/3/5 224/3/5 225/3/5
f 229/3/5 228/3/5 227/3/5
f 230/3/5 228/3/5 229/3/5
f 235/3/5 232/3/5 231/3/5
f 236/3/5 232/3/5 235/3/5
f 237/4/5 234/4/5 233/4/5
f 238/4/5 234/4/5 237/4/5
f 244/4/5 240/4/5 239/4/5
f 245/3/5 241/3/5 240/3/5
f 245/4/5 240/4/5 244/4/5
f 246/3/5 241/3/5 245/3/5
f 247/3/5 241/3/5 246/3/5
f 248/4/5 244/4/5 239/4/5
f 249/3/5 246/3/5 245/3/5
f 250/3/5 246/3/5 249/3/5
f 251/3/5 241/3/5 247/3/5
f 252/4/5 248/4/5 239/4/5
f 252/4/5 249/4/5 248/4/5
f 253/3/5 250/3/5 249/3/5
f 253/4/5 249/4/5 252/4/5
f 253/3/5 251/3/5 250/3/5
f 254/3/5 241/3/5 251/3/5
f 254/3/5 251/3/5 253/3/5
f 255/3/5 243/3/5 242/3/5
f 256/3/5 243/3/5 255/3/5
f 259/3/5 258/3/5 257/3/5
f 260/3/5 258/3/5 259/3/5
f 263/4/5 262/4/5 261/4/5
f 264/4/5 262/4/5 263/4/5
f 265/3/6 266/3/6 267/3/6
f 267/3/6 266/3/6 268/3/6
f 271/3/6 272/3/6 273/3/6
f 273/3/6 272/3/6 274/3/6
f 269/3/6 270/3/6 275/3/6
f 275/3/6 270/3/6 276/3/6
f 277/4/6 278/4/6 279/4/6
f 279/4/6 278/4/6 280/4/6
f 281/4/6 282/4/6 285/4/6
f 285/4/6 282/4/6 286/4/6
f 283/4/6 284/4/6 287/4/6
f 287/4/6 284/4/6 288/4/6
f 289/4/6 290/4/6 295/4/6
f 291/4/6 292/4/6 296/4/6
f 289/4/6 295/4/6 297/4/6
f 295/2/6 296/2/6 297/2/6
f 296/4/6 292/4/6 298/4/6
f 297/2/6 296/2/6 298/2/6
f 289/4/6 297/4/6 299/4/6
f 299/4/6 297/4/6 300/4/6
f 298/4/6 292/4/6 301/4/6
f 292/3/6 293/3/6 302/3/6
f 301/4/6 292/4/6 302/4/6
f 293/4/6 294/4/6 303/4/6
f 302/3/6 293/3/6 303/3/6
f 303/4/6 294/4/6 304/4/6
