# MagicaVoxel @ ephtracy

# material
mtllib rendõr.obj..mtl
usemtl palette

# normals
vn -1 0 0
vn 1 0 0
vn 0 0 1
vn 0 0 -1
vn 0 -1 0
vn 0 1 0

# texcoords
vt 0.201172 0.5
vt 0.876953 0.5
vt 0.919922 0.5
vt 0.923828 0.5
vt 0.958984 0.5
vt 0.962891 0.5
vt 0.990234 0.5
vt 0.994141 0.5

# verts
v -5 4 5.5
v -5 4 3.5
v -5 4 2.5
v -5 4 -0.5
v -5 5 5.5
v -5 5 3.5
v -5 5 2.5
v -5 5 -0.5
v -4 12 5.5
v -4 12 -3.5
v -4 13 5.5
v -4 13 2.5
v -4 14 2.5
v -4 14 -3.5
v -3 1 2.5
v -3 1 -2.5
v -3 4 0.5
v -3 4 -0.5
v -3 5 2.5
v -3 5 1.5
v -3 5 0.5
v -3 5 -0.5
v -3 6 2.5
v -3 6 1.5
v -3 6 -2.5
v -3 7 1.5
v -3 7 -2.5
v -3 10 0.5
v -3 10 -2.5
v -3 11 2.5
v -3 11 0.5
v -3 12 2.5
v -3 12 -2.5
v -3 14 1.5
v -3 14 -2.5
v -3 15 1.5
v -3 15 -2.5
v -2 0 0.5
v -2 0 -0.5
v -2 1 0.5
v -2 1 -0.5
v 1 0 0.5
v 1 0 -0.5
v 1 1 0.5
v 1 1 -0.5
v 4 4 5.5
v 4 4 3.5
v 4 4 2.5
v 4 4 0.5
v 4 5 5.5
v 4 5 3.5
v 4 5 2.5
v 4 5 0.5
v -4 4 5.5
v -4 4 3.5
v -4 4 2.5
v -4 4 0.5
v -4 5 5.5
v -4 5 3.5
v -4 5 2.5
v -4 5 0.5
v -1 0 0.5
v -1 0 -0.5
v -1 1 0.5
v -1 1 -0.5
v 2 0 0.5
v 2 0 -0.5
v 2 1 0.5
v 2 1 -0.5
v 3 1 2.5
v 3 1 1.5
v 3 1 -2.5
v 3 4 0.5
v 3 4 -0.5
v 3 5 2.5
v 3 5 1.5
v 3 5 0.5
v 3 5 -0.5
v 3 6 2.5
v 3 6 1.5
v 3 6 -2.5
v 3 7 1.5
v 3 7 -2.5
v 3 10 0.5
v 3 10 -2.5
v 3 11 2.5
v 3 11 0.5
v 3 12 2.5
v 3 12 -2.5
v 3 14 1.5
v 3 14 -2.5
v 3 15 1.5
v 3 15 -2.5
v 4 12 5.5
v 4 12 -3.5
v 4 13 5.5
v 4 13 2.5
v 4 14 2.5
v 4 14 -3.5
v 5 4 5.5
v 5 4 3.5
v 5 4 2.5
v 5 4 -0.5
v 5 5 5.5
v 5 5 3.5
v 5 5 2.5
v 5 5 -0.5
v -5 4 5.5
v -5 5 5.5
v -4 4 5.5
v -4 5 5.5
v -4 12 5.5
v -4 13 5.5
v 4 4 5.5
v 4 5 5.5
v 4 12 5.5
v 4 13 5.5
v 5 4 5.5
v 5 5 5.5
v -4 13 2.5
v -4 14 2.5
v -3 1 2.5
v -3 5 2.5
v -3 6 2.5
v -3 11 2.5
v -3 12 2.5
v -2 4 2.5
v -2 5 2.5
v -2 9 2.5
v -2 10 2.5
v -1 3 2.5
v -1 4 2.5
v -1 6 2.5
v -1 7 2.5
v -1 8 2.5
v -1 9 2.5
v -1 10 2.5
v 1 3 2.5
v 1 4 2.5
v 1 6 2.5
v 1 7 2.5
v 1 8 2.5
v 1 9 2.5
v 1 10 2.5
v 2 1 2.5
v 2 4 2.5
v 2 5 2.5
v 2 9 2.5
v 2 10 2.5
v 3 1 2.5
v 3 5 2.5
v 3 6 2.5
v 3 11 2.5
v 3 12 2.5
v 4 13 2.5
v 4 14 2.5
v -3 14 1.5
v -3 15 1.5
v 3 14 1.5
v 3 15 1.5
v -4 4 0.5
v -4 5 0.5
v -3 4 0.5
v -3 5 0.5
v -2 0 0.5
v -2 1 0.5
v -1 0 0.5
v -1 1 0.5
v 1 0 0.5
v 1 1 0.5
v 2 0 0.5
v 2 1 0.5
v 3 4 0.5
v 3 5 0.5
v 4 4 0.5
v 4 5 0.5
v -5 4 -0.5
v -5 5 -0.5
v -3 4 -0.5
v -3 5 -0.5
v -2 0 -0.5
v -2 1 -0.5
v -1 0 -0.5
v -1 1 -0.5
v 1 0 -0.5
v 1 1 -0.5
v 2 0 -0.5
v 2 1 -0.5
v 3 4 -0.5
v 3 5 -0.5
v 5 4 -0.5
v 5 5 -0.5
v -3 1 -2.5
v -3 6 -2.5
v -3 7 -2.5
v -3 10 -2.5
v -3 12 -2.5
v -3 14 -2.5
v -3 15 -2.5
v 3 1 -2.5
v 3 6 -2.5
v 3 7 -2.5
v 3 10 -2.5
v 3 12 -2.5
v 3 14 -2.5
v 3 15 -2.5
v -4 12 -3.5
v -4 14 -3.5
v 4 12 -3.5
v 4 14 -3.5
v -2 0 0.5
v -1 0 0.5
v 1 0 0.5
v 2 0 0.5
v -2 0 -0.5
v -1 0 -0.5
v 1 0 -0.5
v 2 0 -0.5
v -3 1 2.5
v 2 1 2.5
v 3 1 2.5
v 2 1 1.5
v 3 1 1.5
v -2 1 0.5
v -1 1 0.5
v 1 1 0.5
v 2 1 0.5
v -2 1 -0.5
v -1 1 -0.5
v 1 1 -0.5
v 2 1 -0.5
v -3 1 -2.5
v 3 1 -2.5
v -5 4 5.5
v -4 4 5.5
v 4 4 5.5
v 5 4 5.5
v -5 4 3.5
v -4 4 3.5
v 4 4 3.5
v 5 4 3.5
v -5 4 2.5
v -4 4 2.5
v 4 4 2.5
v 5 4 2.5
v -4 4 0.5
v -3 4 0.5
v 3 4 0.5
v 4 4 0.5
v -5 4 -0.5
v -3 4 -0.5
v 3 4 -0.5
v 5 4 -0.5
v -4 12 5.5
v 4 12 5.5
v -3 12 2.5
v 3 12 2.5
v -3 12 -2.5
v 3 12 -2.5
v -4 12 -3.5
v 4 12 -3.5
v -5 5 5.5
v -4 5 5.5
v 4 5 5.5
v 5 5 5.5
v -5 5 3.5
v -4 5 3.5
v 4 5 3.5
v 5 5 3.5
v -5 5 2.5
v -4 5 2.5
v 4 5 2.5
v 5 5 2.5
v -4 5 0.5
v -3 5 0.5
v 3 5 0.5
v 4 5 0.5
v -5 5 -0.5
v -3 5 -0.5
v 3 5 -0.5
v 5 5 -0.5
v -4 13 5.5
v 4 13 5.5
v -4 13 2.5
v 4 13 2.5
v -4 14 2.5
v 4 14 2.5
v -3 14 1.5
v 3 14 1.5
v -3 14 -2.5
v 3 14 -2.5
v -4 14 -3.5
v 4 14 -3.5
v -3 15 1.5
v 3 15 1.5
v -3 15 -2.5
v 3 15 -2.5

# faces
f 5/1/1 2/1/1 1/1/1
f 6/6/1 3/6/1 2/6/1
f 6/1/1 2/1/1 5/1/1
f 7/3/1 4/3/1 3/3/1
f 7/6/1 3/6/1 6/6/1
f 8/3/1 4/3/1 7/3/1
f 11/4/1 10/4/1 9/4/1
f 12/4/1 10/4/1 11/4/1
f 13/4/1 10/4/1 12/4/1
f 14/4/1 10/4/1 13/4/1
f 17/3/1 16/3/1 15/3/1
f 18/3/1 16/3/1 17/3/1
f 19/3/1 17/3/1 15/3/1
f 20/3/1 17/3/1 19/3/1
f 21/3/1 17/3/1 20/3/1
f 22/3/1 16/3/1 18/3/1
f 23/5/1 20/5/1 19/5/1
f 24/3/1 21/3/1 20/3/1
f 24/5/1 20/5/1 23/5/1
f 24/3/1 22/3/1 21/3/1
f 25/3/1 16/3/1 22/3/1
f 25/3/1 22/3/1 24/3/1
f 26/1/1 24/1/1 23/1/1
f 26/5/1 25/5/1 24/5/1
f 27/5/1 25/5/1 26/5/1
f 28/1/1 27/1/1 26/1/1
f 29/1/1 27/1/1 28/1/1
f 30/1/1 26/1/1 23/1/1
f 30/1/1 28/1/1 26/1/1
f 31/2/1 29/2/1 28/2/1
f 31/1/1 28/1/1 30/1/1
f 32/2/1 31/2/1 30/2/1
f 33/2/1 29/2/1 31/2/1
f 33/2/1 31/2/1 32/2/1
f 36/4/1 35/4/1 34/4/1
f 37/4/1 35/4/1 36/4/1
f 40/7/1 39/7/1 38/7/1
f 41/7/1 39/7/1 40/7/1
f 44/7/1 43/7/1 42/7/1
f 45/7/1 43/7/1 44/7/1
f 50/1/1 47/1/1 46/1/1
f 51/6/1 48/6/1 47/6/1
f 51/1/1 47/1/1 50/1/1
f 52/3/1 49/3/1 48/3/1
f 52/6/1 48/6/1 51/6/1
f 53/3/1 49/3/1 52/3/1
f 54/1/2 55/1/2 58/1/2
f 55/6/2 56/6/2 59/6/2
f 58/1/2 55/1/2 59/1/2
f 56/3/2 57/3/2 60/3/2
f 59/6/2 56/6/2 60/6/2
f 60/3/2 57/3/2 61/3/2
f 62/7/2 63/7/2 64/7/2
f 64/7/2 63/7/2 65/7/2
f 66/7/2 67/7/2 68/7/2
f 68/7/2 67/7/2 69/7/2
f 71/3/2 72/3/2 73/3/2
f 73/3/2 72/3/2 74/3/2
f 70/4/2 71/4/2 75/4/2
f 71/3/2 73/3/2 76/3/2
f 75/4/2 71/4/2 76/4/2
f 76/3/2 73/3/2 77/3/2
f 74/3/2 72/3/2 78/3/2
f 75/5/2 76/5/2 79/5/2
f 76/3/2 77/3/2 80/3/2
f 79/5/2 76/5/2 80/5/2
f 77/3/2 78/3/2 80/3/2
f 78/3/2 72/3/2 81/3/2
f 80/3/2 78/3/2 81/3/2
f 79/1/2 80/1/2 82/1/2
f 80/5/2 81/5/2 82/5/2
f 82/5/2 81/5/2 83/5/2
f 82/1/2 83/1/2 84/1/2
f 84/1/2 83/1/2 85/1/2
f 79/1/2 82/1/2 86/1/2
f 82/1/2 84/1/2 86/1/2
f 84/2/2 85/2/2 87/2/2
f 86/1/2 84/1/2 87/1/2
f 86/2/2 87/2/2 88/2/2
f 87/2/2 85/2/2 89/2/2
f 88/2/2 87/2/2 89/2/2
f 90/4/2 91/4/2 92/4/2
f 92/4/2 91/4/2 93/4/2
f 94/4/2 95/4/2 96/4/2
f 96/4/2 95/4/2 97/4/2
f 97/4/2 95/4/2 98/4/2
f 98/4/2 95/4/2 99/4/2
f 100/1/2 101/1/2 104/1/2
f 101/6/2 102/6/2 105/6/2
f 104/1/2 101/1/2 105/1/2
f 102/3/2 103/3/2 106/3/2
f 105/6/2 102/6/2 106/6/2
f 106/3/2 103/3/2 107/3/2
f 110/1/3 109/1/3 108/1/3
f 111/1/3 109/1/3 110/1/3
f 116/4/3 113/4/3 112/4/3
f 117/4/3 113/4/3 116/4/3
f 118/1/3 115/1/3 114/1/3
f 119/1/3 115/1/3 118/1/3
f 127/3/3 123/3/3 122/3/3
f 128/5/3 124/5/3 123/5/3
f 128/3/3 123/3/3 127/3/3
f 129/1/3 125/1/3 124/1/3
f 130/1/3 125/1/3 129/1/3
f 131/3/3 127/3/3 122/3/3
f 132/5/3 128/5/3 127/5/3
f 132/3/3 127/3/3 131/3/3
f 133/5/3 124/5/3 128/5/3
f 133/5/3 128/5/3 132/5/3
f 133/1/3 129/1/3 124/1/3
f 134/1/3 129/1/3 133/1/3
f 135/1/3 129/1/3 134/1/3
f 136/7/3 130/7/3 129/7/3
f 136/1/3 129/1/3 135/1/3
f 137/1/3 125/1/3 130/1/3
f 137/7/3 130/7/3 136/7/3
f 138/8/3 132/8/3 131/8/3
f 138/3/3 131/3/3 122/3/3
f 138/8/3 133/8/3 132/8/3
f 139/8/3 133/8/3 138/8/3
f 140/1/3 134/1/3 133/1/3
f 140/8/3 133/8/3 139/8/3
f 141/7/3 135/7/3 134/7/3
f 141/1/3 134/1/3 140/1/3
f 142/1/3 136/1/3 135/1/3
f 142/7/3 135/7/3 141/7/3
f 142/1/3 137/1/3 136/1/3
f 143/1/3 137/1/3 142/1/3
f 144/1/3 125/1/3 137/1/3
f 144/1/3 137/1/3 143/1/3
f 145/3/3 138/3/3 122/3/3
f 145/3/3 139/3/3 138/3/3
f 146/5/3 140/5/3 139/5/3
f 146/3/3 139/3/3 145/3/3
f 147/5/3 140/5/3 146/5/3
f 148/1/3 141/1/3 140/1/3
f 148/1/3 143/1/3 142/1/3
f 148/7/3 144/7/3 143/7/3
f 148/1/3 142/1/3 141/1/3
f 149/1/3 125/1/3 144/1/3
f 149/7/3 144/7/3 148/7/3
f 150/4/3 147/4/3 146/4/3
f 150/4/3 146/4/3 145/4/3
f 151/5/3 140/5/3 147/5/3
f 151/4/3 147/4/3 150/4/3
f 152/1/3 148/1/3 140/1/3
f 152/5/3 140/5/3 151/5/3
f 152/1/3 149/1/3 148/1/3
f 153/2/3 126/2/3 125/2/3
f 153/1/3 149/1/3 152/1/3
f 153/1/3 125/1/3 149/1/3
f 154/2/3 126/2/3 153/2/3
f 155/4/3 121/4/3 120/4/3
f 156/4/3 121/4/3 155/4/3
f 159/4/3 158/4/3 157/4/3
f 160/4/3 158/4/3 159/4/3
f 163/3/3 162/3/3 161/3/3
f 164/3/3 162/3/3 163/3/3
f 167/7/3 166/7/3 165/7/3
f 168/7/3 166/7/3 167/7/3
f 171/7/3 170/7/3 169/7/3
f 172/7/3 170/7/3 171/7/3
f 175/3/3 174/3/3 173/3/3
f 176/3/3 174/3/3 175/3/3
f 177/3/4 178/3/4 179/3/4
f 179/3/4 178/3/4 180/3/4
f 181/7/4 182/7/4 183/7/4
f 183/7/4 182/7/4 184/7/4
f 185/7/4 186/7/4 187/7/4
f 187/7/4 186/7/4 188/7/4
f 189/3/4 190/3/4 191/3/4
f 191/3/4 190/3/4 192/3/4
f 193/3/4 194/3/4 200/3/4
f 194/5/4 195/5/4 201/5/4
f 200/3/4 194/3/4 201/3/4
f 195/1/4 196/1/4 202/1/4
f 201/5/4 195/5/4 202/5/4
f 196/2/4 197/2/4 203/2/4
f 202/1/4 196/1/4 203/1/4
f 203/2/4 197/2/4 204/2/4
f 198/4/4 199/4/4 205/4/4
f 205/4/4 199/4/4 206/4/4
f 207/4/4 208/4/4 209/4/4
f 209/4/4 208/4/4 210/4/4
f 215/7/5 212/7/5 211/7/5
f 216/7/5 212/7/5 215/7/5
f 217/7/5 214/7/5 213/7/5
f 218/7/5 214/7/5 217/7/5
f 222/3/5 220/3/5 219/3/5
f 222/4/5 221/4/5 220/4/5
f 223/4/5 221/4/5 222/4/5
f 224/3/5 222/3/5 219/3/5
f 224/3/5 223/3/5 222/3/5
f 225/3/5 223/3/5 224/3/5
f 226/3/5 223/3/5 225/3/5
f 227/3/5 223/3/5 226/3/5
f 228/3/5 224/3/5 219/3/5
f 229/3/5 226/3/5 225/3/5
f 230/3/5 226/3/5 229/3/5
f 231/3/5 223/3/5 227/3/5
f 232/3/5 230/3/5 229/3/5
f 232/3/5 231/3/5 230/3/5
f 232/3/5 228/3/5 219/3/5
f 232/3/5 229/3/5 228/3/5
f 233/3/5 223/3/5 231/3/5
f 233/3/5 231/3/5 232/3/5
f 238/1/5 235/1/5 234/1/5
f 239/1/5 235/1/5 238/1/5
f 240/1/5 237/1/5 236/1/5
f 241/1/5 237/1/5 240/1/5
f 242/6/5 239/6/5 238/6/5
f 243/6/5 239/6/5 242/6/5
f 244/6/5 241/6/5 240/6/5
f 245/6/5 241/6/5 244/6/5
f 246/3/5 243/3/5 242/3/5
f 249/3/5 245/3/5 244/3/5
f 250/3/5 247/3/5 246/3/5
f 250/3/5 246/3/5 242/3/5
f 251/3/5 247/3/5 250/3/5
f 252/3/5 249/3/5 248/3/5
f 253/3/5 245/3/5 249/3/5
f 253/3/5 249/3/5 252/3/5
f 256/4/5 255/4/5 254/4/5
f 257/4/5 255/4/5 256/4/5
f 258/4/5 256/4/5 254/4/5
f 259/4/5 255/4/5 257/4/5
f 260/4/5 258/4/5 254/4/5
f 260/4/5 259/4/5 258/4/5
f 261/4/5 255/4/5 259/4/5
f 261/4/5 259/4/5 260/4/5
f 262/1/6 263/1/6 266/1/6
f 266/1/6 263/1/6 267/1/6
f 264/1/6 265/1/6 268/1/6
f 268/1/6 265/1/6 269/1/6
f 266/6/6 267/6/6 270/6/6
f 270/6/6 267/6/6 271/6/6
f 268/6/6 269/6/6 272/6/6
f 272/6/6 269/6/6 273/6/6
f 270/3/6 271/3/6 274/3/6
f 272/3/6 273/3/6 277/3/6
f 274/3/6 275/3/6 278/3/6
f 270/3/6 274/3/6 278/3/6
f 278/3/6 275/3/6 279/3/6
f 276/3/6 277/3/6 280/3/6
f 277/3/6 273/3/6 281/3/6
f 280/3/6 277/3/6 281/3/6
f 282/4/6 283/4/6 284/4/6
f 284/4/6 283/4/6 285/4/6
f 286/4/6 287/4/6 288/4/6
f 288/4/6 287/4/6 289/4/6
f 286/4/6 288/4/6 290/4/6
f 289/4/6 287/4/6 291/4/6
f 286/4/6 290/4/6 292/4/6
f 290/4/6 291/4/6 292/4/6
f 291/4/6 287/4/6 293/4/6
f 292/4/6 291/4/6 293/4/6
f 294/4/6 295/4/6 296/4/6
f 296/4/6 295/4/6 297/4/6
