# MagicaVoxel @ ephtracy

# material
mtllib road.mtl
usemtl palette

# normals
vn -1 0 0
vn 1 0 0
vn 0 0 1
vn 0 0 -1
vn 0 -1 0
vn 0 1 0

# texcoords
vt 0.958984 0.5
vt 0.978516 0.5
vt 0.990234 0.5

# verts
v -10 0 12.5
v -10 0 -12.5
v -10 1 12.5
v -10 1 -12.5
v -10 2 12.5
v -10 2 -12.5
v 6 1 12.5
v 6 1 -12.5
v 6 2 12.5
v 6 2 -12.5
v -6 1 12.5
v -6 1 -12.5
v -6 2 12.5
v -6 2 -12.5
v 10 0 12.5
v 10 0 -12.5
v 10 1 12.5
v 10 1 -12.5
v 10 2 12.5
v 10 2 -12.5
v -10 0 12.5
v -10 1 12.5
v -10 2 12.5
v -6 1 12.5
v -6 2 12.5
v 6 1 12.5
v 6 2 12.5
v 10 0 12.5
v 10 1 12.5
v 10 2 12.5
v -10 0 -12.5
v -10 1 -12.5
v -10 2 -12.5
v -6 1 -12.5
v -6 2 -12.5
v 6 1 -12.5
v 6 2 -12.5
v 10 0 -12.5
v 10 1 -12.5
v 10 2 -12.5
v -10 0 12.5
v 10 0 12.5
v -1 0 4.5
v 1 0 4.5
v -1 0 -1.5
v 1 0 -1.5
v -10 0 -12.5
v 10 0 -12.5
v -6 1 12.5
v 6 1 12.5
v -1 1 4.5
v 1 1 4.5
v -1 1 -1.5
v 1 1 -1.5
v -6 1 -12.5
v 6 1 -12.5
v -10 2 12.5
v -6 2 12.5
v 6 2 12.5
v 10 2 12.5
v -10 2 -12.5
v -6 2 -12.5
v 6 2 -12.5
v 10 2 -12.5

# faces
f 3/3/1 2/3/1 1/3/1
f 4/3/1 2/3/1 3/3/1
f 5/2/1 4/2/1 3/2/1
f 6/2/1 4/2/1 5/2/1
f 9/2/1 8/2/1 7/2/1
f 10/2/1 8/2/1 9/2/1
f 11/2/2 12/2/2 13/2/2
f 13/2/2 12/2/2 14/2/2
f 15/3/2 16/3/2 17/3/2
f 17/3/2 16/3/2 18/3/2
f 17/2/2 18/2/2 19/2/2
f 19/2/2 18/2/2 20/2/2
f 24/3/3 22/3/3 21/3/3
f 24/2/3 23/2/3 22/2/3
f 25/2/3 23/2/3 24/2/3
f 26/3/3 24/3/3 21/3/3
f 28/3/3 26/3/3 21/3/3
f 29/2/3 27/2/3 26/2/3
f 29/3/3 26/3/3 28/3/3
f 30/2/3 27/2/3 29/2/3
f 31/3/4 32/3/4 34/3/4
f 32/2/4 33/2/4 34/2/4
f 34/2/4 33/2/4 35/2/4
f 31/3/4 34/3/4 36/3/4
f 31/3/4 36/3/4 38/3/4
f 36/2/4 37/2/4 39/2/4
f 38/3/4 36/3/4 39/3/4
f 39/2/4 37/2/4 40/2/4
f 43/3/5 42/3/5 41/3/5
f 44/3/5 42/3/5 43/3/5
f 45/3/5 43/3/5 41/3/5
f 45/1/5 44/1/5 43/1/5
f 46/3/5 42/3/5 44/3/5
f 46/1/5 44/1/5 45/1/5
f 47/3/5 45/3/5 41/3/5
f 47/3/5 46/3/5 45/3/5
f 48/3/5 42/3/5 46/3/5
f 48/3/5 46/3/5 47/3/5
f 49/3/6 50/3/6 51/3/6
f 51/3/6 50/3/6 52/3/6
f 49/3/6 51/3/6 53/3/6
f 51/1/6 52/1/6 53/1/6
f 52/3/6 50/3/6 54/3/6
f 53/1/6 52/1/6 54/1/6
f 49/3/6 53/3/6 55/3/6
f 53/3/6 54/3/6 55/3/6
f 54/3/6 50/3/6 56/3/6
f 55/3/6 54/3/6 56/3/6
f 57/2/6 58/2/6 61/2/6
f 61/2/6 58/2/6 62/2/6
f 59/2/6 60/2/6 63/2/6
f 63/2/6 60/2/6 64/2/6
