# MagicaVoxel @ ephtracy

# material
mtllib swat-os.mtl
usemtl palette

# normals
vn -1 0 0
vn 1 0 0
vn 0 0 1
vn 0 0 -1
vn 0 -1 0
vn 0 1 0

# texcoords
vt 0.0605469 0.5
vt 0.873047 0.5
vt 0.990234 0.5
vt 0.994141 0.5

# verts
v -5 6 4.5
v -5 6 -0.5
v -5 7 4.5
v -5 7 -0.5
v -5 10 1.5
v -5 10 -1.5
v -5 12 1.5
v -5 12 -1.5
v -4 10 -1.5
v -4 10 -3.5
v -4 11 -3.5
v -4 11 -4.5
v -4 12 2.5
v -4 12 1.5
v -4 12 -1.5
v -4 13 3.5
v -4 13 2.5
v -4 13 -3.5
v -4 13 -4.5
v -4 14 3.5
v -4 14 -3.5
v -3 1 2.5
v -3 1 -2.5
v -3 6 0.5
v -3 6 -0.5
v -3 7 0.5
v -3 7 -0.5
v -3 8 2.5
v -3 8 -2.5
v -3 10 1.5
v -3 10 -2.5
v -3 12 2.5
v -3 12 1.5
v -3 14 2.5
v -3 14 -2.5
v -3 15 2.5
v -3 15 -2.5
v -2 0 0.5
v -2 0 -0.5
v -2 1 0.5
v -2 1 -0.5
v 1 0 0.5
v 1 0 -0.5
v 1 1 0.5
v 1 1 -0.5
v 4 6 4.5
v 4 6 0.5
v 4 7 4.5
v 4 7 0.5
v -4 6 4.5
v -4 6 0.5
v -4 7 4.5
v -4 7 0.5
v -1 0 0.5
v -1 0 -0.5
v -1 1 0.5
v -1 1 -0.5
v 2 0 0.5
v 2 0 -0.5
v 2 1 0.5
v 2 1 -0.5
v 3 1 2.5
v 3 1 -2.5
v 3 6 0.5
v 3 6 -0.5
v 3 7 0.5
v 3 7 -0.5
v 3 8 2.5
v 3 8 -2.5
v 3 10 1.5
v 3 10 -2.5
v 3 13 2.5
v 3 13 1.5
v 3 14 2.5
v 3 14 -2.5
v 3 15 2.5
v 3 15 -2.5
v 4 10 -1.5
v 4 10 -3.5
v 4 11 -3.5
v 4 11 -4.5
v 4 12 1.5
v 4 12 -1.5
v 4 13 3.5
v 4 13 1.5
v 4 13 -3.5
v 4 13 -4.5
v 4 14 3.5
v 4 14 -3.5
v 5 6 4.5
v 5 6 -0.5
v 5 7 4.5
v 5 7 -0.5
v 5 10 1.5
v 5 10 -1.5
v 5 12 1.5
v 5 12 -1.5
v -5 6 4.5
v -5 7 4.5
v -4 6 4.5
v -4 7 4.5
v 4 6 4.5
v 4 7 4.5
v 5 6 4.5
v 5 7 4.5
v -4 13 3.5
v -4 14 3.5
v 4 13 3.5
v 4 14 3.5
v -4 12 2.5
v -4 13 2.5
v -3 1 2.5
v -3 8 2.5
v -3 12 2.5
v -3 13 2.5
v -3 14 2.5
v -3 15 2.5
v -2 11 2.5
v -2 12 2.5
v -1 9 2.5
v -1 10 2.5
v -1 11 2.5
v -1 12 2.5
v 1 9 2.5
v 1 10 2.5
v 1 11 2.5
v 1 12 2.5
v 2 11 2.5
v 2 12 2.5
v 3 1 2.5
v 3 8 2.5
v 3 13 2.5
v 3 14 2.5
v 3 15 2.5
v -5 10 1.5
v -5 12 1.5
v -4 12 1.5
v -3 10 1.5
v -3 12 1.5
v 3 10 1.5
v 3 13 1.5
v 4 12 1.5
v 4 13 1.5
v 5 10 1.5
v 5 12 1.5
v -4 6 0.5
v -4 7 0.5
v -3 6 0.5
v -3 7 0.5
v -2 0 0.5
v -2 1 0.5
v -1 0 0.5
v -1 1 0.5
v 1 0 0.5
v 1 1 0.5
v 2 0 0.5
v 2 1 0.5
v 3 6 0.5
v 3 7 0.5
v 4 6 0.5
v 4 7 0.5
v -5 6 -0.5
v -5 7 -0.5
v -3 6 -0.5
v -3 7 -0.5
v -2 0 -0.5
v -2 1 -0.5
v -1 0 -0.5
v -1 1 -0.5
v 1 0 -0.5
v 1 1 -0.5
v 2 0 -0.5
v 2 1 -0.5
v 3 6 -0.5
v 3 7 -0.5
v 5 6 -0.5
v 5 7 -0.5
v -5 10 -1.5
v -5 12 -1.5
v -4 10 -1.5
v -4 12 -1.5
v 4 10 -1.5
v 4 12 -1.5
v 5 10 -1.5
v 5 12 -1.5
v -3 1 -2.5
v -3 8 -2.5
v -3 10 -2.5
v -3 14 -2.5
v -3 15 -2.5
v 3 1 -2.5
v 3 8 -2.5
v 3 10 -2.5
v 3 14 -2.5
v 3 15 -2.5
v -4 10 -3.5
v -4 11 -3.5
v -4 13 -3.5
v -4 14 -3.5
v 4 10 -3.5
v 4 11 -3.5
v 4 13 -3.5
v 4 14 -3.5
v -4 11 -4.5
v -4 13 -4.5
v 4 11 -4.5
v 4 13 -4.5
v -2 0 0.5
v -1 0 0.5
v 1 0 0.5
v 2 0 0.5
v -2 0 -0.5
v -1 0 -0.5
v 1 0 -0.5
v 2 0 -0.5
v -3 1 2.5
v 3 1 2.5
v -2 1 0.5
v -1 1 0.5
v 1 1 0.5
v 2 1 0.5
v -2 1 -0.5
v -1 1 -0.5
v 1 1 -0.5
v 2 1 -0.5
v -3 1 -2.5
v 3 1 -2.5
v -5 6 4.5
v -4 6 4.5
v 4 6 4.5
v 5 6 4.5
v -4 6 0.5
v -3 6 0.5
v 3 6 0.5
v 4 6 0.5
v -5 6 -0.5
v -3 6 -0.5
v 3 6 -0.5
v 5 6 -0.5
v -5 10 1.5
v -3 10 1.5
v 3 10 1.5
v 5 10 1.5
v -5 10 -1.5
v -4 10 -1.5
v 4 10 -1.5
v 5 10 -1.5
v -3 10 -2.5
v 3 10 -2.5
v -4 10 -3.5
v 4 10 -3.5
v -4 11 -3.5
v 4 11 -3.5
v -4 11 -4.5
v 4 11 -4.5
v -4 12 2.5
v -3 12 2.5
v -4 12 1.5
v -3 12 1.5
v -4 13 3.5
v 4 13 3.5
v -4 13 2.5
v -3 13 2.5
v 3 13 2.5
v 3 13 1.5
v 4 13 1.5
v -5 7 4.5
v -4 7 4.5
v 4 7 4.5
v 5 7 4.5
v -4 7 0.5
v -3 7 0.5
v 3 7 0.5
v 4 7 0.5
v -5 7 -0.5
v -3 7 -0.5
v 3 7 -0.5
v 5 7 -0.5
v -5 12 1.5
v -4 12 1.5
v 4 12 1.5
v 5 12 1.5
v -5 12 -1.5
v -4 12 -1.5
v 4 12 -1.5
v 5 12 -1.5
v -4 13 -3.5
v 4 13 -3.5
v -4 13 -4.5
v 4 13 -4.5
v -4 14 3.5
v 4 14 3.5
v -3 14 2.5
v 3 14 2.5
v -3 14 -2.5
v 3 14 -2.5
v -4 14 -3.5
v 4 14 -3.5
v -3 15 2.5
v 3 15 2.5
v -3 15 -2.5
v 3 15 -2.5

# faces
f 3/4/1 2/4/1 1/4/1
f 4/4/1 2/4/1 3/4/1
f 7/4/1 6/4/1 5/4/1
f 8/4/1 6/4/1 7/4/1
f 11/4/1 10/4/1 9/4/1
f 15/4/1 11/4/1 9/4/1
f 15/4/1 12/4/1 11/4/1
f 17/4/1 14/4/1 13/4/1
f 17/4/1 15/4/1 14/4/1
f 18/4/1 12/4/1 15/4/1
f 18/4/1 15/4/1 17/4/1
f 19/4/1 12/4/1 18/4/1
f 20/4/1 17/4/1 16/4/1
f 20/4/1 18/4/1 17/4/1
f 21/4/1 18/4/1 20/4/1
f 24/4/1 23/4/1 22/4/1
f 25/4/1 23/4/1 24/4/1
f 26/4/1 24/4/1 22/4/1
f 27/4/1 23/4/1 25/4/1
f 28/4/1 26/4/1 22/4/1
f 28/4/1 27/4/1 26/4/1
f 29/4/1 23/4/1 27/4/1
f 29/4/1 27/4/1 28/4/1
f 30/1/1 29/1/1 28/1/1
f 31/1/1 29/1/1 30/1/1
f 32/1/1 30/1/1 28/1/1
f 33/1/1 30/1/1 32/1/1
f 36/4/1 35/4/1 34/4/1
f 37/4/1 35/4/1 36/4/1
f 40/4/1 39/4/1 38/4/1
f 41/4/1 39/4/1 40/4/1
f 44/4/1 43/4/1 42/4/1
f 45/4/1 43/4/1 44/4/1
f 48/4/1 47/4/1 46/4/1
f 49/4/1 47/4/1 48/4/1
f 50/4/2 51/4/2 52/4/2
f 52/4/2 51/4/2 53/4/2
f 54/4/2 55/4/2 56/4/2
f 56/4/2 55/4/2 57/4/2
f 58/4/2 59/4/2 60/4/2
f 60/4/2 59/4/2 61/4/2
f 62/4/2 63/4/2 64/4/2
f 64/4/2 63/4/2 65/4/2
f 62/4/2 64/4/2 66/4/2
f 65/4/2 63/4/2 67/4/2
f 62/4/2 66/4/2 68/4/2
f 66/4/2 67/4/2 68/4/2
f 67/4/2 63/4/2 69/4/2
f 68/4/2 67/4/2 69/4/2
f 68/1/2 69/1/2 70/1/2
f 70/1/2 69/1/2 71/1/2
f 68/1/2 70/1/2 72/1/2
f 72/1/2 70/1/2 73/1/2
f 74/4/2 75/4/2 76/4/2
f 76/4/2 75/4/2 77/4/2
f 78/4/2 79/4/2 80/4/2
f 78/4/2 80/4/2 83/4/2
f 80/4/2 81/4/2 83/4/2
f 82/4/2 83/4/2 85/4/2
f 83/4/2 81/4/2 86/4/2
f 85/4/2 83/4/2 86/4/2
f 86/4/2 81/4/2 87/4/2
f 84/4/2 85/4/2 88/4/2
f 85/4/2 86/4/2 88/4/2
f 88/4/2 86/4/2 89/4/2
f 90/4/2 91/4/2 92/4/2
f 92/4/2 91/4/2 93/4/2
f 94/4/2 95/4/2 96/4/2
f 96/4/2 95/4/2 97/4/2
f 100/4/3 99/4/3 98/4/3
f 101/4/3 99/4/3 100/4/3
f 104/4/3 103/4/3 102/4/3
f 105/4/3 103/4/3 104/4/3
f 108/4/3 107/4/3 106/4/3
f 109/4/3 107/4/3 108/4/3
f 114/4/3 111/4/3 110/4/3
f 115/4/3 111/4/3 114/4/3
f 118/1/3 114/1/3 113/1/3
f 118/1/3 115/1/3 114/1/3
f 119/1/3 115/1/3 118/1/3
f 120/1/3 118/1/3 113/1/3
f 121/1/3 118/1/3 120/1/3
f 122/3/3 119/3/3 118/3/3
f 122/1/3 118/1/3 121/1/3
f 123/1/3 115/1/3 119/1/3
f 123/3/3 119/3/3 122/3/3
f 124/2/3 121/2/3 120/2/3
f 124/1/3 120/1/3 113/1/3
f 125/1/3 122/1/3 121/1/3
f 125/2/3 121/2/3 124/2/3
f 125/1/3 123/1/3 122/1/3
f 126/1/3 123/1/3 125/1/3
f 127/1/3 115/1/3 123/1/3
f 127/1/3 123/1/3 126/1/3
f 128/1/3 126/1/3 125/1/3
f 128/1/3 125/1/3 124/1/3
f 128/3/3 127/3/3 126/3/3
f 129/1/3 115/1/3 127/1/3
f 129/3/3 127/3/3 128/3/3
f 130/4/3 113/4/3 112/4/3
f 131/1/3 124/1/3 113/1/3
f 131/4/3 113/4/3 130/4/3
f 131/1/3 128/1/3 124/1/3
f 131/1/3 129/1/3 128/1/3
f 132/1/3 115/1/3 129/1/3
f 132/1/3 129/1/3 131/1/3
f 133/4/3 117/4/3 116/4/3
f 134/4/3 117/4/3 133/4/3
f 137/4/3 136/4/3 135/4/3
f 138/4/3 137/4/3 135/4/3
f 139/4/3 137/4/3 138/4/3
f 142/4/3 141/4/3 140/4/3
f 143/4/3 141/4/3 142/4/3
f 144/4/3 142/4/3 140/4/3
f 145/4/3 142/4/3 144/4/3
f 148/4/3 147/4/3 146/4/3
f 149/4/3 147/4/3 148/4/3
f 152/4/3 151/4/3 150/4/3
f 153/4/3 151/4/3 152/4/3
f 156/4/3 155/4/3 154/4/3
f 157/4/3 155/4/3 156/4/3
f 160/4/3 159/4/3 158/4/3
f 161/4/3 159/4/3 160/4/3
f 162/4/4 163/4/4 164/4/4
f 164/4/4 163/4/4 165/4/4
f 166/4/4 167/4/4 168/4/4
f 168/4/4 167/4/4 169/4/4
f 170/4/4 171/4/4 172/4/4
f 172/4/4 171/4/4 173/4/4
f 174/4/4 175/4/4 176/4/4
f 176/4/4 175/4/4 177/4/4
f 178/4/4 179/4/4 180/4/4
f 180/4/4 179/4/4 181/4/4
f 182/4/4 183/4/4 184/4/4
f 184/4/4 183/4/4 185/4/4
f 186/4/4 187/4/4 191/4/4
f 187/1/4 188/1/4 192/1/4
f 191/4/4 187/4/4 192/4/4
f 192/1/4 188/1/4 193/1/4
f 189/4/4 190/4/4 194/4/4
f 194/4/4 190/4/4 195/4/4
f 196/4/4 197/4/4 200/4/4
f 200/4/4 197/4/4 201/4/4
f 198/4/4 199/4/4 202/4/4
f 202/4/4 199/4/4 203/4/4
f 204/4/4 205/4/4 206/4/4
f 206/4/4 205/4/4 207/4/4
f 212/4/5 209/4/5 208/4/5
f 213/4/5 209/4/5 212/4/5
f 214/4/5 211/4/5 210/4/5
f 215/4/5 211/4/5 214/4/5
f 218/4/5 217/4/5 216/4/5
f 219/4/5 217/4/5 218/4/5
f 220/4/5 217/4/5 219/4/5
f 221/4/5 217/4/5 220/4/5
f 222/4/5 218/4/5 216/4/5
f 223/4/5 220/4/5 219/4/5
f 224/4/5 220/4/5 223/4/5
f 225/4/5 217/4/5 221/4/5
f 226/4/5 224/4/5 223/4/5
f 226/4/5 225/4/5 224/4/5
f 226/4/5 222/4/5 216/4/5
f 226/4/5 223/4/5 222/4/5
f 227/4/5 217/4/5 225/4/5
f 227/4/5 225/4/5 226/4/5
f 232/4/5 229/4/5 228/4/5
f 235/4/5 231/4/5 230/4/5
f 236/4/5 233/4/5 232/4/5
f 236/4/5 232/4/5 228/4/5
f 237/4/5 233/4/5 236/4/5
f 238/4/5 235/4/5 234/4/5
f 239/4/5 231/4/5 235/4/5
f 239/4/5 235/4/5 238/4/5
f 244/4/5 241/4/5 240/4/5
f 245/4/5 241/4/5 244/4/5
f 246/4/5 243/4/5 242/4/5
f 247/4/5 243/4/5 246/4/5
f 248/4/5 241/4/5 245/4/5
f 249/4/5 246/4/5 242/4/5
f 250/4/5 248/4/5 245/4/5
f 250/4/5 249/4/5 248/4/5
f 251/4/5 246/4/5 249/4/5
f 251/4/5 249/4/5 250/4/5
f 254/4/5 253/4/5 252/4/5
f 255/4/5 253/4/5 254/4/5
f 258/4/5 257/4/5 256/4/5
f 259/4/5 257/4/5 258/4/5
f 262/4/5 261/4/5 260/4/5
f 263/4/5 261/4/5 262/4/5
f 264/4/5 261/4/5 263/4/5
f 265/4/5 261/4/5 264/4/5
f 266/4/5 261/4/5 265/4/5
f 267/4/6 268/4/6 271/4/6
f 269/4/6 270/4/6 274/4/6
f 271/4/6 272/4/6 275/4/6
f 267/4/6 271/4/6 275/4/6
f 275/4/6 272/4/6 276/4/6
f 273/4/6 274/4/6 277/4/6
f 274/4/6 270/4/6 278/4/6
f 277/4/6 274/4/6 278/4/6
f 279/4/6 280/4/6 283/4/6
f 283/4/6 280/4/6 284/4/6
f 281/4/6 282/4/6 285/4/6
f 285/4/6 282/4/6 286/4/6
f 287/4/6 288/4/6 289/4/6
f 289/4/6 288/4/6 290/4/6
f 291/4/6 292/4/6 293/4/6
f 293/4/6 292/4/6 294/4/6
f 291/4/6 293/4/6 295/4/6
f 294/4/6 292/4/6 296/4/6
f 291/4/6 295/4/6 297/4/6
f 295/4/6 296/4/6 297/4/6
f 296/4/6 292/4/6 298/4/6
f 297/4/6 296/4/6 298/4/6
f 299/4/6 300/4/6 301/4/6
f 301/4/6 300/4/6 302/4/6
